<?xml version="1.0" encoding="UTF-8" standalone="no"?>
<!-- Created with Inkscape (http://www.inkscape.org/) -->

<svg
   xmlns:dc="http://purl.org/dc/elements/1.1/"
   xmlns:cc="http://creativecommons.org/ns#"
   xmlns:rdf="http://www.w3.org/1999/02/22-rdf-syntax-ns#"
   xmlns:svg="http://www.w3.org/2000/svg"
   xmlns="http://www.w3.org/2000/svg"
   xmlns:sodipodi="http://sodipodi.sourceforge.net/DTD/sodipodi-0.dtd"
   xmlns:inkscape="http://www.inkscape.org/namespaces/inkscape"
   version="1.1"
   id="svg3753"
   width="196"
   height="196"
   viewBox="0 0 196 196"
   sodipodi:docname="morty-196x196.svg"
   inkscape:version="0.92.2 5c3e80d, 2017-08-06">
  <metadata
     id="metadata3759">
    <rdf:RDF>
      <cc:Work
         rdf:about="">
        <dc:format>image/svg+xml</dc:format>
        <dc:type
           rdf:resource="http://purl.org/dc/dcmitype/StillImage" />
        <dc:title></dc:title>
      </cc:Work>
    </rdf:RDF>
  </metadata>
  <defs
     id="defs3757" />
  <sodipodi:namedview
     pagecolor="#ffffff"
     bordercolor="#666666"
     borderopacity="1"
     objecttolerance="10"
     gridtolerance="10"
     guidetolerance="10"
     inkscape:pageopacity="0"
     inkscape:pageshadow="2"
     inkscape:window-width="1470"
     inkscape:window-height="1043"
     id="namedview3755"
     showgrid="false"
     inkscape:zoom="3.994898"
     inkscape:cx="98.750958"
     inkscape:cy="98"
     inkscape:window-x="0"
     inkscape:window-y="0"
     inkscape:window-maximized="0"
     inkscape:current-layer="svg3753" />
  <g
     id="g3795">
    <path
       style="fill:#fdbd85"
       d="m 84,195 c 0,-0.55 0.45,-1 1,-1 0.55,0 1,0.45 1,1 0,0.55 -0.45,1 -1,1 -0.55,0 -1,-0.45 -1,-1 z m -15,-4.05902 c 0,-0.58246 0.45,-0.7809 1,-0.44098 0.55,0.33992 1,0.81648 1,1.05902 C 71,191.80156 70.55,192 70,192 c -0.55,0 -1,-0.47656 -1,-1.05902 z M 133,189 c 0,-0.55 0.47656,-1 1.05902,-1 0.58246,0 0.7809,0.45 0.44098,1 -0.33992,0.55 -0.81648,1 -1.05902,1 C 133.19844,190 133,189.55 133,189 Z m -74,-2.05902 c 0,-0.58246 0.45,-0.7809 1,-0.44098 0.55,0.33992 1,0.81648 1,1.05902 C 61,187.80156 60.55,188 60,188 c -0.55,0 -1,-0.47656 -1,-1.05902 z M 137,187 c 0,-0.55 0.47656,-1 1.05902,-1 0.58246,0 0.7809,0.45 0.44098,1 -0.33992,0.55 -0.81648,1 -1.05902,1 C 137.19844,188 137,187.55 137,187 Z m 4.5,-2 c 0.33992,-0.55 0.81648,-1 1.05902,-1 0.24254,0 0.44098,0.45 0.44098,1 0,0.55 -0.47656,1 -1.05902,1 -0.58246,0 -0.7809,-0.45 -0.44098,-1 z m -54,-5.59337 C 78.210196,178.08275 63.812566,172.59171 59.561439,168.75128 58.49523,167.78807 57.247947,167 56.789699,167 55.429451,167 45,156.15672 45,154.7425 45,154.02696 44.1,152.79284 43,152 41.9,151.20716 41,149.75782 41,148.77924 41,147.80066 40.55,147 40,147 c -0.55,0 -1,-0.9 -1,-2 0,-1.1 -0.45,-2 -1,-2 -0.55,0 -1,-0.9 -1,-2 0,-1.1 -0.45,-2 -1,-2 -0.55,0 -1,-1.09844 -1,-2.44098 0,-1.34254 -0.45,-2.7191 -1,-3.05902 -0.55,-0.33992 -1,-1.91492 -1,-3.5 0,-1.58508 -0.45,-3.16008 -1,-3.5 -0.59447,-0.3674 -1,-6.67705 -1,-15.55902 C 31,101.64699 31.377953,96 32,96 c 0.55,0 1,-1.35 1,-3 0,-1.65 0.45,-3 1,-3 0.55,0 1,-1.35 1,-3 0,-1.65 0.45,-3 1,-3 0.55,0 1,-0.9 1,-2 0,-1.1 0.45,-2 1,-2 0.55,0 1,-0.9 1,-2 0,-1.1 0.45,-2 1,-2 0.55,0 1,-0.675 1,-1.5 0,-0.825 0.45,-1.5 1,-1.5 0.55,0 1,-0.675 1,-1.5 0,-0.825 0.45,-1.5 1,-1.5 0.55,0 1,-0.575658 1,-1.279241 0,-0.703582 0.9,-1.927924 2,-2.720759 1.1,-0.792835 2,-2.017177 2,-2.720759 0,-0.703583 0.3375,-1.281756 0.75,-1.28483 0.4125,-0.0031 2.885814,-2.028074 5.496253,-4.5 C 57.856692,55.022485 60.444192,53 60.996253,53 61.548314,53 62,52.55 62,52 c 0,-0.55 0.675,-1 1.5,-1 0.825,0 1.5,-0.45 1.5,-1 0,-0.55 0.675,-1 1.5,-1 0.825,0 1.5,-0.45 1.5,-1 0,-0.55 0.9,-1 2,-1 1.1,0 2,-0.45 2,-1 0,-0.55 1.35,-1 3,-1 1.65,0 3,-0.45 3,-1 0,-0.55 1.35,-1 3,-1 1.65,0 3,-0.45 3,-1 0,-0.619048 5.333333,-1 14,-1 8.66667,0 14,0.380952 14,1 0,0.55 1.35,1 3,1 1.65,0 3,0.45 3,1 0,0.55 1.35,1 3,1 1.65,0 3,0.45 3,1 0,0.55 0.9,1 2,1 1.1,0 2,0.45 2,1 0,0.55 0.9,1 2,1 1.1,0 2,0.45 2,1 0,0.55 0.675,1 1.5,1 0.825,0 1.5,0.373959 1.5,0.83102 0,0.457061 1.23579,1.469561 2.7462,2.25 1.51042,0.780439 3.64792,2.210874 4.75,3.178745 C 149.37142,63.297681 153,66.98086 153,67.921599 153,68.51472 153.45,69 154,69 c 0.55,0 1,0.675 1,1.5 0,0.825 0.45,1.5 1,1.5 0.55,0 1,0.675 1,1.5 0,0.825 0.45,1.5 1,1.5 0.55,0 1,0.9 1,2 0,1.1 0.45,2 1,2 0.55,0 1,0.873442 1,1.940983 0,1.067541 0.45,2.219098 1,2.559017 0.55,0.339919 1,1.491476 1,2.559017 C 163,87.126558 163.40469,88 163.89931,88 c 1.32927,0 2.21345,7.713931 2.7391,23.89698 0.30414,9.36339 0.0995,14.76514 -0.58539,15.45 -0.57916,0.57916 -1.05302,2.51146 -1.05302,4.294 0,1.78254 -0.45,3.5191 -1,3.85902 -0.55,0.33992 -1,1.71648 -1,3.05902 0,1.34254 -0.45,2.44098 -1,2.44098 -0.55,0 -1,0.9 -1,2 0,1.1 -0.45,2 -1,2 -0.55,0 -1,0.9 -1,2 0,1.1 -0.37396,2 -0.83102,2 -0.45706,0 -1.46956,1.2375 -2.25,2.75 -1.81233,3.51232 -15.69983,17.25 -17.43812,17.25 -0.72281,0 -1.46419,0.3375 -1.64753,0.75 -0.18333,0.4125 -2.58333,1.81951 -5.33333,3.12668 -5.00194,2.37761 -5.95781,2.76338 -12.5,5.04473 -3.51915,1.22717 -25.904446,2.28264 -31.5,1.48522 z M 96.642857,174.5 c 0.825,-0.825 1.885714,-1.5 2.357143,-1.5 0.471429,0 1.53214,0.675 2.35714,1.5 0.88349,0.88349 3.27614,1.48708 5.82143,1.46858 3.46351,-0.0252 4.69176,-0.53959 6.18681,-2.59108 3.01132,-4.13209 2.308,-13.4348 -1.67292,-22.1275 -0.76791,-1.67679 -1.87902,-2.25 -4.36144,-2.25 -3.01961,0 -3.33102,0.27494 -3.33102,2.94098 0,1.61754 0.45,3.2191 1,3.55902 0.55,0.33992 1,2.16648 1,4.05902 0,1.89254 0.45,3.44098 1,3.44098 0.55,0 1,1.125 1,2.5 0,2.72207 -0.0848,2.78844 -2.41821,1.89301 C 104.7118,167.05917 104,165.73034 104,164.44006 104,160.13387 101.90246,157 99.020256,157 c -2.331001,0 -2.821376,0.59734 -3.978372,4.84619 C 93.508229,167.47824 90,170.72234 90,166.50847 90,165.12881 90.45,164 91,164 c 0.55,0 1,-1.575 1,-3.5 0,-1.925 0.45,-3.5 1,-3.5 0.55,0 1,-0.9 1,-2 0,-1.1 0.45,-2 1,-2 1.630132,0 1.138192,-5.00466 -0.669643,-6.8125 -1.2142,-1.2142 -1.782489,-1.33111 -2.083333,-0.42857 C 92.019494,146.44152 91.018978,147 90.023655,147 c -0.995322,0 -2.129034,0.7875 -2.519358,1.75 -4.960034,12.23094 -6.093132,21.83688 -2.981425,25.27527 2.208031,2.43985 9.855329,2.73939 12.119985,0.47473 z m 9.122523,-41.49605 c 2.34991,-2.18927 3.76325,-7.64216 2.8296,-10.91701 -0.32724,-1.14782 -0.87391,-3.06133 -1.21483,-4.25225 -0.603,-2.1064 -0.54989,-2.0996 1.95185,0.25 3.67814,3.45446 4.79628,4.24597 8.168,5.78198 1.65,0.75167 3.78139,1.76417 4.73643,2.25 C 124.65872,127.3489 141,127.24729 141,126 c 0,-0.55 0.9,-1 2,-1 1.1,0 2,-0.45 2,-1 0,-0.55 0.71946,-1 1.59879,-1 2.2396,0 7.08174,-5.45048 10.1647,-11.44173 2.24568,-4.36411 2.61166,-6.36198 2.6669,-14.55827 0.055,-8.159055 -0.28408,-10.20576 -2.40207,-14.5 C 154.22613,76.818558 150.81641,73 148.54545,73 147.69545,73 147,72.659565 147,72.243479 147,70.620303 138.61499,69 130.21511,69 122.08191,69 116.0272,70.385048 116.0078,72.25 116.0038,72.6625 115.28,73 114.4,73 c -1.80187,0 -8.4,6.205381 -8.4,7.9 0,0.605 -0.45,1.1 -1,1.1 -0.55,0 -1,1.125 -1,2.5 0,1.375 -0.45,2.5 -1,2.5 -0.60317,0 -1,4.166667 -1,10.5 0,6.33333 0.39683,10.5 1,10.5 0.55,0 1,0.9 1,2 0,1.1 0.45,2 1,2 0.55,0 1,0.94814 1,2.10699 0,1.46204 -0.45915,1.93079 -1.5,1.53138 -3.15681,-1.21138 -4.5,0.42092 -4.5,5.46862 C 100,123.79814 99.742857,126 99.428571,126 98.233599,126 96,123.07366 96,121.50807 c 0,-1.24199 -0.780897,-1.55949 -3.25,-1.32143 -3.046694,0.29376 -3.243182,0.54436 -3.141015,4.0061 0.241139,8.17057 10.713605,13.88194 16.156395,8.81121 z M 111,109 c -0.5887,-1.1 -0.84537,-2 -0.57037,-2 0.275,0 0.98167,0.9 1.57037,2 0.5887,1.1 0.84537,2 0.57037,2 -0.275,0 -0.98167,-0.9 -1.57037,-2 z m -2.39301,-6.58179 c -0.84088,-2.19129 -0.73394,-9.670599 0.15832,-11.072718 0.40408,-0.63498 0.73469,1.95252 0.73469,5.75 0,3.797478 -0.0644,6.904508 -0.14301,6.904508 -0.0787,0 -0.41616,-0.7118 -0.75,-1.58179 z M 151.01531,102.25 C 151.00689,101.0125 151.45,100 152,100 c 1.25292,0 1.25292,1.06124 0,3 -0.78387,1.21296 -0.9723,1.06944 -0.98469,-0.75 z M 132.15789,92 c 0,-1.375 0.22698,-1.9375 0.50439,-1.25 0.27741,0.6875 0.27741,1.8125 0,2.5 -0.27741,0.6875 -0.50439,0.125 -0.50439,-1.25 z M 151,91 c 0,-0.55 0.45,-1 1,-1 0.55,0 1,0.45 1,1 0,0.55 -0.45,1 -1,1 -0.55,0 -1,-0.45 -1,-1 z m -11,-4 c -0.90129,-0.58246 -1.02463,-0.975486 -0.30902,-0.984687 0.65504,-0.0084 1.4691,0.434687 1.80902,0.984687 0.7673,1.241525 0.42112,1.241525 -1.5,0 z m -70.5,41 c 0.339919,-0.55 2.123951,-1 3.964516,-1 C 78.823235,127 90,120.27146 90,117.04545 90,116.47045 90.45,116 91,116 c 0.55,0 1,-0.9 1,-2 0,-1.1 0.45,-2 1,-2 0.55,0 1,-1.125 1,-2.5 0,-1.375 0.45,-2.5 1,-2.5 0.596491,0 1,-3.83333 1,-9.5 C 96,91.833333 95.596491,88 95,88 94.45,88 94,86.875 94,85.5 94,84.125 93.55,83 93,83 92.45,83 92,82.273192 92,81.38487 92,79.517218 85.241406,73 83.304583,73 82.587062,73 82,72.55 82,72 82,71.45 81.126558,71 80.059017,71 78.991476,71 77.839919,70.55 77.5,70 77.14891,69.431925 72.156282,69 65.940983,69 59.313661,69 55,69.394266 55,70 c 0,0.55 -0.9,1 -2,1 -1.1,0 -2,0.395406 -2,0.87868 0,0.483273 -1.35,1.437868 -3,2.12132 -1.65,0.683452 -3,1.553194 -3,1.932759 0,0.379565 -0.802225,1.562471 -1.782723,2.62868 C 41.0264,80.943835 38.549,86.184502 37.100885,91.5 c -1.8169,6.669168 -1.337976,13.12268 1.403981,18.9187 2.474181,5.22999 7.647013,11.5813 9.432403,11.5813 0.505931,0 1.514517,0.5625 2.241302,1.25 1.895296,1.79285 7.940763,3.75 11.58341,3.75 1.715992,0 3.3981,0.45 3.738019,1 0.339919,0.55 1.239919,1 2,1 0.760081,0 1.660081,-0.45 2,-1 z m -2.6875,-7.68311 c 0.721875,-0.28887 1.584375,-0.25335 1.916667,0.0789 0.332291,0.3323 -0.258334,0.56864 -1.3125,0.52522 -1.164943,-0.048 -1.4019,-0.28494 -0.604167,-0.60416 z M 43.623539,104.46134 c -0.964979,-2.51469 -0.680311,-3.16355 0.498534,-1.13634 0.58369,1.00375 0.850598,2.03566 0.593129,2.29313 -0.257468,0.25747 -0.748717,-0.26309 -1.091663,-1.15679 z M 51,103 c 0,-0.55 0.45,-1 1,-1 0.55,0 1,0.45 1,1 0,0.55 -0.45,1 -1,1 -0.55,0 -1,-0.45 -1,-1 z m -8,-8 c 0,-0.55 0.45,-1 1,-1 0.55,0 1,0.45 1,1 0,0.55 -0.45,1 -1,1 -0.55,0 -1,-0.45 -1,-1 z m 110,81.60699 c 0,-0.21616 0.69837,-0.661 1.55194,-0.98855 0.88992,-0.34149 1.29132,-0.17385 0.94098,0.39301 C 154.90566,176.96166 153,177.4169 153,176.60699 Z m 13.51128,-13.98387 C 167.45659,161.18041 168.4191,160 168.65019,160 c 0.72338,0 -1.6049,3.85397 -2.75929,4.56743 -0.6041,0.37335 -0.32492,-0.50159 0.62038,-1.94431 z M 26,160 c -0.825,-0.53316 -1.05,-0.96937 -0.5,-0.96937 0.55,0 1.675,0.43621 2.5,0.96937 0.825,0.53316 1.05,0.96937 0.5,0.96937 -0.55,0 -1.675,-0.43621 -2.5,-0.96937 z m -10,-4.05902 c 0,-0.58246 0.45,-0.7809 1,-0.44098 0.55,0.33992 1,0.81648 1,1.05902 C 18,156.80156 17.55,157 17,157 c -0.55,0 -1,-0.47656 -1,-1.05902 z m 162,0.66601 c 0,-0.21616 0.69837,-0.661 1.55194,-0.98855 0.88992,-0.34149 1.29132,-0.17385 0.94098,0.39301 C 179.90566,156.96166 178,157.4169 178,156.60699 Z M 10.588476,152.49364 c -1.6013382,-1.37716 -2.6138382,-2.80161 -2.25,-3.16545 0.3638382,-0.36384 0.774024,-0.47402 0.911524,-0.24486 0.1375,0.22917 1.340941,1.65417 2.674314,3.16667 3.018868,3.42443 2.477542,3.52316 -1.335838,0.24364 z m 14.92561,-8.80245 c -5.683682,-3.40919 -7.415771,-7.87903 -5.436742,-14.03009 1.849507,-5.74849 3.271266,-6.39589 4.132576,-1.88178 0.390456,2.04637 1.015123,5.29568 1.388148,7.22068 0.373025,1.925 0.996773,3.725 1.386108,4 1.04358,0.73712 2.183911,6.00994 1.284876,5.94119 -0.422979,-0.0323 -1.662713,-0.59484 -2.754966,-1.25 z M 170.53444,141.25 c 0.41163,-0.9625 0.96166,-2.99301 1.22229,-4.51224 0.26062,-1.51923 0.87198,-3.00829 1.35857,-3.30902 0.48658,-0.30072 0.8847,-2.09522 0.8847,-3.98776 0,-4.46206 2.20383,-4.53167 3.79911,-0.11998 2.25967,6.249 1.27034,9.7074 -3.55551,12.429 -3.15793,1.78095 -4.60143,1.58636 -3.70916,-0.5 z M 190,109 c 0,-0.55 0.45,-1 1,-1 0.55,0 1,0.45 1,1 0,0.55 -0.45,1 -1,1 -0.55,0 -1,-0.45 -1,-1 z M 0,101 c 0,-0.55 0.45,-1 1,-1 0.55,0 1,0.45 1,1 0,0.55 -0.45,1 -1,1 -0.55,0 -1,-0.45 -1,-1 z M 190.72917,77.395833 C 190.32812,76.994792 190,75.976667 190,75.133333 c 0,-1.125593 0.29583,-1.2375 1.1125,-0.420833 0.61187,0.611875 0.94,1.63 0.72917,2.2625 -0.21084,0.6325 -0.71146,0.821875 -1.1125,0.420833 z M 10,59 c 0,-1.1 0.407871,-2 0.90638,-2 0.49851,0 0.671025,0.9 0.383369,2 -0.287656,1.1 -0.695528,2 -0.90638,2 C 10.172516,61 10,60.1 10,59 Z M 184.66667,57.333333 C 184.3,56.966667 184,56.201667 184,55.633333 c 0,-0.626604 0.46577,-0.567562 1.18333,0.15 0.65084,0.650834 0.95084,1.415834 0.66667,1.7 -0.28417,0.284167 -0.81667,0.216667 -1.18333,-0.15 z m -4.04313,-9.871992 c -0.96498,-2.514694 -0.68031,-3.163555 0.49853,-1.136338 0.58369,1.003751 0.8506,2.035659 0.59313,2.293128 -0.25747,0.257469 -0.74872,-0.263087 -1.09166,-1.15679 z M 24,31.687091 c 0,-0.1721 1.4625,-1.6346 3.25,-3.25 L 30.5,25.5 27.562909,28.75 C 24.825128,31.779455 24,32.459652 24,31.687091 Z M 157.87244,17.25 C 156.62857,15.663944 156.66394,15.628574 158.25,16.872445 159.91575,18.178814 160.44548,19 159.62244,19 c -0.20765,0 -0.99515,-0.7875 -1.75,-1.75 z M 41.083333,16.717032 C 41.3125,16.5614 42.4,15.7739 43.5,14.967032 45.350006,13.610023 45.397071,13.631245 44.127555,15.25 43.372711,16.2125 42.285211,17 41.710889,17 41.136567,17 40.854167,16.872665 41.083333,16.717032 Z M 59,7 C 59,6.45 59.476558,6 60.059017,6 60.641476,6 60.839919,6.45 60.5,7 60.160081,7.55 59.683524,8 59.440983,8 59.198442,8 59,7.55 59,7 Z m 76.5,0 C 135.16008,6.45 135.35852,6 135.94098,6 136.52344,6 137,6.45 137,7 137,7.55 136.80156,8 136.55902,8 136.31648,8 135.83992,7.55 135.5,7 Z M 65.5,5 C 65.839919,4.45 66.568034,4 67.118034,4 67.668034,4 67.839919,4.45 67.5,5 67.160081,5.55 66.431966,6 65.881966,6 65.331966,6 65.160081,5.55 65.5,5 Z m 62,0 C 127.16008,4.45 127.5835,4 128.44098,4 129.29844,4 130,4.45 130,5 130,5.55 129.57656,6 129.05902,6 128.54148,6 127.83992,5.55 127.5,5 Z M 108,1 c 0,-0.55 0.45,-1 1,-1 0.55,0 1,0.45 1,1 0,0.55 -0.45,1 -1,1 -0.55,0 -1,-0.45 -1,-1 z"
       id="path3805"
       inkscape:connector-curvature="0" />
    <path
       style="fill:#d5a070"
       d="m 86,195 c 0,-0.55 0.9,-1 2,-1 1.1,0 2,0.45 2,1 0,0.55 -0.9,1 -2,1 -1.1,0 -2,-0.45 -2,-1 z m 24,0 c 0,-0.55 0.675,-1 1.5,-1 0.825,0 1.5,0.45 1.5,1 0,0.55 -0.675,1 -1.5,1 -0.825,0 -1.5,-0.45 -1.5,-1 z M 54,184 c -0.825,-0.53316 -1.05,-0.96937 -0.5,-0.96937 0.55,0 1.675,0.43621 2.5,0.96937 0.825,0.53316 1.05,0.96937 0.5,0.96937 -0.55,0 -1.675,-0.43621 -2.5,-0.96937 z m 34.5,-3.12075 c -2.2,-0.50272 -6.25,-1.41164 -9,-2.01981 C 74.415103,177.73489 60.021053,171.59533 59.038973,170.1321 58.742538,169.69044 57.6,168.81872 56.5,168.19495 c -1.49973,-0.85045 -1.60943,-1.14174 -0.438561,-1.16454 0.858791,-0.0167 2.433791,0.75766 3.5,1.72087 2.104889,1.90153 9.148363,5.45385 13.938561,7.02979 10.200192,3.35579 12.739006,3.71893 26,3.71893 15.69671,0 19.89348,-0.86864 32,-6.62332 2.75,-1.30717 5.15,-2.71418 5.33333,-3.12668 0.45529,-1.02439 2.16667,-0.95148 2.16667,0.0923 0,1.01484 -13.88925,7.43095 -19.5,9.00797 -10.91692,3.06844 -22.992407,3.85879 -31,2.02897 z M 48,180 c -0.825,-0.53316 -1.05,-0.96937 -0.5,-0.96937 0.55,0 1.675,0.43621 2.5,0.96937 0.825,0.53316 1.05,0.96937 0.5,0.96937 -0.55,0 -1.675,-0.43621 -2.5,-0.96937 z m 36.523749,-5.97376 c -2.386865,-2.63745 -2.182025,-10.55402 0.478195,-18.48101 2.395507,-7.1382 3.60652,-9.2701 4.664723,-8.2119 0.426477,0.42648 0.330899,1.08845 -0.212395,1.47104 C 87.693192,150.04455 84,162.63328 84,167.39597 c 0,4.15431 0.336061,4.83833 3.25,6.61499 2.69916,1.64571 2.894918,1.9822 1.154988,1.9853 -1.152257,0.002 -2.898815,-0.88445 -3.881239,-1.97002 z m 10.842647,-0.15404 c 2.897005,-1.52808 4.150615,-1.75287 5.000004,-0.89656 0.84741,0.85432 0.72434,0.98714 -0.487461,0.5261 -0.891584,-0.33922 -2.321941,0.0841 -3.178572,0.94075 -0.85663,0.85663 -2.377153,1.53762 -3.378938,1.51331 -1.138327,-0.0276 -0.371391,-0.80904 2.044967,-2.0836 z M 102,175 c 0,-0.55 0.42344,-1 0.94098,-1 0.51754,0 1.2191,0.45 1.55902,1 0.33992,0.55 -0.0835,1 -0.94098,1 C 102.70156,176 102,175.55 102,175 Z m 7.5,-0.20782 c 1.1,-0.63085 2.54819,-1.85466 3.2182,-2.71959 1.86236,-2.40416 1.51,-10.97649 -0.69967,-17.0219 -2.00663,-5.48989 -2.21524,-7.92658 -0.32527,-3.79918 5.39937,11.79132 4.25399,24.68338 -2.19326,24.68666 l -2,10e-4 2,-1.147 z M 91.5,168 c 0.339919,-0.55 1.068034,-1 1.618034,-1 0.55,0 0.721885,0.45 0.381966,1 -0.339919,0.55 -1.068034,1 -1.618034,1 -0.55,0 -0.721885,-0.45 -0.381966,-1 z m 12.5,0 c 0,-1.25292 1.06124,-1.25292 3,0 1.21296,0.78387 1.06944,0.9723 -0.75,0.98469 C 105.0125,168.99311 104,168.55 104,168 Z m 42.84265,-5.91306 c 4.0327,-3.98499 7.525,-7.05263 7.76065,-6.81698 0.66264,0.66264 -9.79627,11.22776 -12.60067,12.72863 -1.3707,0.73358 0.80731,-1.92667 4.84002,-5.91165 z m -96.874143,0.88364 c -1.783652,-1.66618 -2.986241,-3.28618 -2.672422,-3.6 0.31382,-0.31382 2.190582,1.04942 4.170582,3.02942 4.355416,4.35542 3.075393,4.84292 -1.49816,0.57058 z M 102.75,165.42304 c -0.4125,-0.416 -0.75,-1.98323 -0.75,-3.48272 0,-2.85238 -1.94754,-4.28142 -4.5,-3.30195 -0.825,0.31659 -1.5,0.0775 -1.5,-0.53138 C 96,157.49814 97.295406,157 98.87868,157 c 2.2384,0 3.14778,0.64967 4.08856,2.9209 1.2526,3.02404 1.10222,6.83282 -0.21724,5.50214 z M 94.015313,164.25 c 0.0084,-0.4125 0.451531,-1.425 0.984687,-2.25 0.783874,-1.21296 0.972305,-1.06944 0.984687,0.75 C 95.993109,163.9875 95.55,165 95,165 c -0.55,0 -0.993109,-0.3375 -0.984687,-0.75 z M 90,162 c 0,-1.1 0.45,-2 1,-2 0.55,0 1,0.9 1,2 0,1.1 -0.45,2 -1,2 -0.55,0 -1,-0.9 -1,-2 z m 16,-1 c 0,-1.1 0.45,-2 1,-2 0.55,0 1,0.9 1,2 0,1.1 -0.45,2 -1,2 -0.55,0 -1,-0.9 -1,-2 z m -14,-5 c 0,-0.55 0.45,-1 1,-1 0.55,0 1,0.45 1,1 0,0.55 -0.45,1 -1,1 -0.55,0 -1,-0.45 -1,-1 z m 12.58295,-0.86579 c -0.43077,-0.697 -0.51316,-1.53733 -0.18309,-1.86741 0.89497,-0.89496 1.87077,0.4213 1.38739,1.87145 -0.33872,1.01617 -0.57427,1.01538 -1.2043,-0.004 z m -62.43383,-1.73803 c -1.822544,-2.06117 -0.649409,-3.03933 1.303261,-1.08666 0.85119,0.85119 1.547619,1.80477 1.547619,2.11905 0,1.05 -1.485106,0.5122 -2.85088,-1.03239 z M 94,152 c 0,-0.55 0.45,-1 1,-1 0.55,0 1,0.45 1,1 0,0.55 -0.45,1 -1,1 -0.55,0 -1,-0.45 -1,-1 z m 62.23207,-1 C 157.4045,149.12265 159,148.29919 159,149.57143 159,150.31823 156.3116,153 155.56295,153 c -0.31894,0 -0.0178,-0.9 0.66912,-2 z M 104,150 c 0,-0.55 0.45,-1 1,-1 0.55,0 1,0.45 1,1 0,0.55 -0.45,1 -1,1 -0.55,0 -1,-0.45 -1,-1 z M 37.199266,144.47325 C 34.695585,139.31992 34.625486,139 36,139 c 0.55,0 1,0.9 1,2 0,1.1 0.45,2 1,2 0.55,0 1,0.9 1,2 0,1.1 0.45,2 1,2 0.55,0 1,0.45 1,1 0,2.31734 -1.750696,0.69285 -3.800734,-3.52675 z m 55.949854,2.92293 c -1.822544,-2.06117 -0.649409,-3.03933 1.303261,-1.08666 0.85119,0.85119 1.547619,1.80477 1.547619,2.11905 0,1.05 -1.485106,0.5122 -2.85088,-1.03239 z M 28.595103,143.25 C 28.171109,140.9125 27.462991,139 27.021508,139 c -0.805424,0 -1.523843,-3.05082 -2.472582,-10.5 l -0.509445,-4 1.00324,3.5 c 0.551782,1.925 1.923821,6.32327 3.048976,9.77393 1.125154,3.45066 1.872163,7.05066 1.660019,8 -0.212143,0.94934 -0.732619,-0.18643 -1.156613,-2.52393 z M 159,146 c 0,-0.55 0.45,-1 1,-1 0.55,0 1,0.45 1,1 0,0.55 -0.45,1 -1,1 -0.55,0 -1,-0.45 -1,-1 z M 24,144 c 0,-0.55 0.423442,-1 0.940983,-1 0.517541,0 1.219098,0.45 1.559017,1 0.339919,0.55 -0.08352,1 -0.940983,1 C 24.701558,145 24,144.55 24,144 Z m -4.25,-4.08736 c -0.9625,-1.6911 -1.749301,-4.50075 -1.748446,-6.24368 0.0019,-3.8215 2.920107,-9.90629 4.998446,-10.42223 1.303862,-0.32368 1.299545,-0.20071 -0.03302,0.94045 -2.180853,1.8676 -4.343483,9.17659 -3.596203,12.15399 0.347722,1.38544 1.306546,3.1933 2.13072,4.01747 1.634981,1.63498 1.921862,2.64493 0.748499,2.63504 -0.4125,-0.003 -1.5375,-1.38995 -2.5,-3.08104 z M 161,142 c 0,-0.55 0.45,-1 1,-1 0.55,0 1,0.45 1,1 0,0.55 -0.45,1 -1,1 -0.55,0 -1,-0.45 -1,-1 z m 8.11151,0.5 c 0.0224,-0.55 0.64718,-2.575 1.38849,-4.5 0.88256,-2.29177 1.36187,-2.80958 1.38849,-1.5 0.0224,1.1 -0.60247,3.125 -1.38849,4.5 -0.78602,1.375 -1.41084,2.05 -1.38849,1.5 z M 173.5,142 c 0.33992,-0.55 1.04148,-1 1.55902,-1 0.51754,0 0.94098,0.45 0.94098,1 0,0.55 -0.70156,1 -1.55902,1 -0.85746,0 -1.2809,-0.45 -0.94098,-1 z m 3.5,-1.86955 c 0,-0.55683 0.45,-1.29053 1,-1.63045 2.29083,-1.41581 -0.10414,-12.5 -2.70089,-12.5 C 174.5846,126 174,125.33912 174,124.53138 c 0,-2.35498 2.78947,-0.65976 4.47543,2.71982 1.94928,3.90742 1.96226,10.45397 0.0246,12.39166 -0.825,0.825 -1.5,1.04441 -1.5,0.48759 z m -13.98469,-2.32143 c -0.008,-0.93004 0.43469,-1.9691 0.98469,-2.30902 1.2656,-0.78218 1.2656,0.54163 0,2.5 -0.8354,1.29269 -0.97149,1.26629 -0.98469,-0.19098 z M 33,134.94098 c 0,-1.13246 0.45,-1.7809 1,-1.44098 0.55,0.33992 1,1.26648 1,2.05902 C 35,136.35156 34.55,137 34,137 c -0.55,0 -1,-0.92656 -1,-2.05902 z M 96,134 c 0,-0.55 0.45,-1 1,-1 0.55,0 1,0.45 1,1 0,0.55 -0.45,1 -1,1 -0.55,0 -1,-0.45 -1,-1 z m 6.5,0 c 0.33992,-0.55 1.06803,-1 1.61803,-1 0.55,0 0.72189,0.45 0.38197,1 -0.33992,0.55 -1.06803,1 -1.61803,1 -0.55,0 -0.72189,-0.45 -0.38197,-1 z m 69.59968,-1.19098 C 172.1545,132.08906 172.55965,130.375 173,129 c 0.76461,-2.38749 0.80513,-2.35639 0.90032,0.69098 0.0548,1.75504 -0.35032,3.4691 -0.90032,3.80902 -0.55,0.33992 -0.95514,0.029 -0.90032,-0.69098 z m -66.08437,-1 c -0.008,-0.93004 0.43469,-1.9691 0.98469,-2.30902 1.2656,-0.78218 1.2656,0.54163 0,2.5 -0.8354,1.29269 -0.97149,1.26629 -0.98469,-0.19098 z m 59,-1 c -0.008,-1.48004 0.43469,-2.9691 0.98469,-3.30902 1.2769,-0.78917 1.2769,2.52414 0,4.5 -0.7582,1.17323 -0.97271,0.91378 -0.98469,-1.19098 z M 92.5,131 c -0.339919,-0.55 -0.141476,-1 0.440983,-1 C 93.523442,130 94,130.45 94,131 c 0,0.55 -0.198442,1 -0.440983,1 -0.242541,0 -0.719098,-0.45 -1.059017,-1 z m -60.75,-0.57696 c -0.4125,-0.416 -0.75,-1.67137 -0.75,-2.78971 0,-1.47178 0.302073,-1.73126 1.09378,-0.93955 0.601579,0.60158 0.939079,1.85695 0.75,2.78971 -0.189079,0.93276 -0.68128,1.35556 -1.09378,0.93955 z M 65.5,128 c -0.351909,-0.5694 0.509288,-1 2,-1 1.490712,0 2.351909,0.4306 2,1 -0.339919,0.55 -1.239919,1 -2,1 -0.760081,0 -1.660081,-0.45 -2,-1 z m 24.5,0 c 0,-0.55 0.45,-1 1,-1 0.55,0 1,0.45 1,1 0,0.55 -0.45,1 -1,1 -0.55,0 -1,-0.45 -1,-1 z m 8,-1 c 0,-0.55 0.45,-1 1,-1 0.55,0 1,-1.35 1,-3 0,-1.65 0.45,-3 1,-3 0.55,0 1,1.8 1,4 0,3.33333 -0.33333,4 -2,4 -1.1,0 -2,-0.45 -2,-1 z m 10.232,-2 c 0,-1.925 0.2058,-2.7125 0.45733,-1.75 0.25152,0.9625 0.25152,2.5375 0,3.5 -0.25153,0.9625 -0.45733,0.175 -0.45733,-1.75 z M 4.5,126 c 0.3399187,-0.55 0.8164763,-1 1.059017,-1 C 5.8015576,125 6,125.45 6,126 6,126.55 5.5234424,127 4.940983,127 4.3585237,127 4.1600813,126.55 4.5,126 Z m 50,-0.35051 C 52.85,125.02373 50.905357,123.9466 50.178571,123.25587 49.451786,122.56514 48.4432,122 47.937269,122 c -1.16646,0 -7.106892,-6.16371 -6.512904,-6.7577 0.243266,-0.24326 1.950148,1.06555 3.793071,2.90847 1.842924,1.84292 5.135424,4.08713 7.316667,4.98712 9.353612,3.85934 9.108376,3.72951 6.965897,3.68805 -1.1,-0.0213 -3.35,-0.55069 -5,-1.17645 z M 75,126 c 1.970116,-1.27319 4.286873,-1.27319 3.5,0 -0.339919,0.55 -1.603976,0.99311 -2.809017,0.98469 C 73.909749,126.97224 73.780524,126.78809 75,126 Z m 47.5,0 c -0.7149,-1.15673 1.88811,-1.15673 5.5,0 2.24559,0.71916 2.12439,0.81078 -1.19098,0.90032 C 124.77898,126.95514 122.83992,126.55 122.5,126 Z m 14,0 c 2.7627,-1.18717 4.5,-1.18717 4.5,0 0,0.55 -1.4625,0.96837 -3.25,0.92971 -2.72353,-0.0589 -2.92602,-0.2095 -1.25,-0.92971 z m -47.15863,-2.42288 c 0.08949,-1.64892 0.812415,-3.09864 1.65863,-3.32613 1.002696,-0.26956 1.119004,-0.12936 0.350815,0.42288 -0.632051,0.45437 -1.378435,1.95113 -1.65863,3.32613 -0.438732,2.15299 -0.487427,2.09429 -0.350815,-0.42288 z m -7.391276,-0.37957 c 1.347552,-0.93365 3.512325,-2.75778 4.810606,-4.05361 1.298282,-1.29583 2.605967,-2.11061 2.905967,-1.81061 1.052808,1.05281 -7.234132,7.76321 -9.403098,7.61422 -0.419963,-0.0289 0.338973,-0.81635 1.686525,-1.75 z m 34.604486,0.49364 c -5.02273,-3.07545 -8.97049,-6.60862 -8.22125,-7.35786 0.35969,-0.35969 1.45929,0.27454 2.44354,1.4094 0.98426,1.13486 3.68712,3.05244 6.00635,4.26129 2.31923,1.20885 4.21678,2.37748 4.21678,2.59695 0,0.78069 -2.53032,0.26285 -4.44542,-0.90978 z M 143,124 c 0,-0.55 0.45,-1 1,-1 0.55,0 1,0.45 1,1 0,0.55 -0.45,1 -1,1 -0.55,0 -1,-0.45 -1,-1 z m 23.75703,-12.5 c -0.29487,-7.7 -0.86483,-15.8 -1.26658,-18 -0.40176,-2.2 -0.38571,-3.671747 0.0357,-3.270548 1.33524,1.271323 3.37123,14.999128 3.30297,22.270548 -0.1313,13.98718 -1.52385,13.31512 -2.07205,-1 z M 29.630286,120.75 C 28.74236,117.43672 29.00392,103.818 30,101.5 c 0.548284,-1.27592 0.884875,2.25394 0.929715,9.75 0.03866,6.4625 -0.102231,11.75 -0.313084,11.75 -0.210852,0 -0.654708,-1.0125 -0.986345,-2.25 z M 147,122.40121 c 0,-0.32933 1.35,-1.85988 3,-3.40121 1.65,-1.54133 3,-3.29688 3,-3.90121 0,-0.60433 0.45,-1.09879 1,-1.09879 0.55,0 1,-0.9 1,-2 0,-1.1 0.38851,-2 0.86336,-2 0.47484,0 1.42457,-2.64455 2.11049,-5.87678 1.17599,-5.541507 1.04447,-10.736396 -0.44617,-17.62322 -0.5927,-2.738337 -0.53501,-2.825558 0.66149,-1 0.86295,1.316649 1.288,5.245916 1.24401,11.5 -0.0576,8.19297 -0.42492,10.19593 -2.66969,14.55827 C 153.49761,117.90499 147,125.12098 147,122.40121 Z M 94,121 c 0,-0.55 0.45,-1 1,-1 0.55,0 1,0.45 1,1 0,0.55 -0.45,1 -1,1 -0.55,0 -1,-0.45 -1,-1 z M 6.4,118.5 c 0,-1.30395 0.36,-2.14833 0.8,-1.87639 1.0342492,0.6392 1.0342492,3.11358 0,3.75278 C 6.76,120.64833 6.4,119.80395 6.4,118.5 Z m 100.26667,1.83333 C 105.72138,119.38804 105.83635,114 106.80181,114 c 0.441,0 0.84646,1.575 0.90102,3.5 0.10464,3.69134 0.0289,3.89841 -1.03616,2.83333 z M 137,119.60699 c 0,-0.21616 0.69837,-0.661 1.55194,-0.98855 0.88992,-0.34149 1.29132,-0.17385 0.94098,0.39301 C 138.90566,119.96166 137,120.4169 137,119.60699 Z m -37,-2 c 0,-1.44118 2.8855,-3.05482 3.80979,-2.13053 C 104.09774,115.76441 103.80833,116 103.16667,116 102.525,116 102,116.675 102,117.5 c 0,0.825 -0.45,1.5 -1,1.5 -0.55,0 -1,-0.62686 -1,-1.39301 z m 89.07895,-1.19032 c 0.048,-1.16495 0.28494,-1.4019 0.60416,-0.60417 0.28887,0.72187 0.25335,1.58437 -0.0789,1.91667 -0.3323,0.33229 -0.56864,-0.25834 -0.52522,-1.3125 z M 90,115 c 0,-0.55 0.45,-1 1,-1 0.55,0 1,0.45 1,1 0,0.55 -0.45,1 -1,1 -0.55,0 -1,-0.45 -1,-1 z M 38.025132,109.55863 C 35.67726,104.08127 35.485385,96.417322 37.547978,90.5 c 1.393181,-3.996861 1.393845,-3.997253 0.845409,-0.5 -1.920538,12.24684 -1.729975,14.51621 1.792572,21.34738 0.523939,1.01606 0.707747,2.09225 0.408461,2.39153 -0.299286,0.29929 -1.455466,-1.58184 -2.569288,-4.18028 z M 92,111 c 0,-0.55 0.45,-1 1,-1 0.55,0 1,0.45 1,1 0,0.55 -0.45,1 -1,1 -0.55,0 -1,-0.45 -1,-1 z m 12,0 c 0,-0.55 0.45,-1 1,-1 0.55,0 1,0.45 1,1 0,0.55 -0.45,1 -1,1 -0.55,0 -1,-0.45 -1,-1 z m 45.5,-2 c 0.33992,-0.55 0.81648,-1 1.05902,-1 0.24254,0 0.44098,0.45 0.44098,1 0,0.55 -0.47656,1 -1.05902,1 -0.58246,0 -0.7809,-0.45 -0.44098,-1 z M 2,106.94098 c 0,-0.58246 0.45,-0.7809 1,-0.44098 0.55,0.33992 1,0.81648 1,1.05902 C 4,107.80156 3.55,108 3,108 2.45,108 2,107.52344 2,106.94098 Z m 100,-1 c 0,-1.13246 0.45,-1.7809 1,-1.44098 0.55,0.33992 1,1.26648 1,2.05902 0,0.79254 -0.45,1.44098 -1,1.44098 -0.55,0 -1,-0.92656 -1,-2.05902 z M 190.5,107 c 0.33992,-0.55 0.81648,-1 1.05902,-1 0.24254,0 0.44098,0.45 0.44098,1 0,0.55 -0.47656,1 -1.05902,1 -0.58246,0 -0.7809,-0.45 -0.44098,-1 z M 94,97.5 c 0,-5.666667 0.403509,-9.5 1,-9.5 0.596491,0 1,3.833333 1,9.5 0,5.66667 -0.403509,9.5 -1,9.5 -0.596491,0 -1,-3.83333 -1,-9.5 z m 14.45888,6.43347 c -0.36253,-0.58659 -0.44468,-1.281 -0.18255,-1.54313 0.26212,-0.26213 0.74306,0.21781 1.06875,1.06653 0.67618,1.76211 0.0999,2.07206 -0.8862,0.4766 z M 88.272364,98 c 0,-2.475 0.195016,-3.4875 0.433369,-2.25 0.238353,1.2375 0.238353,3.2625 0,4.5 -0.238353,1.2375 -0.433369,0.225 -0.433369,-2.25 z M 0,99 c 0,-0.55 0.45,-1 1,-1 0.55,0 1,0.45 1,1 0,0.55 -0.45,1 -1,1 -0.55,0 -1,-0.45 -1,-1 z m 141,-1.571429 c 0,-1.062128 3.09072,-3.67118 3.66667,-3.095238 0.31428,0.314286 -0.125,1.267857 -0.97619,2.119048 C 142.1026,98.040259 141,98.440317 141,97.428571 Z M 31.015313,95.25 C 31.023735,94.8375 31.466844,93.825 32,93 32.783874,91.787041 32.972305,91.930562 32.984687,93.75 32.993109,94.9875 32.55,96 32,96 31.45,96 31.006891,95.6625 31.015313,95.25 Z M 51,95 c 0,-0.55 0.45,-1 1,-1 0.55,0 1,0.45 1,1 0,0.55 -0.45,1 -1,1 -0.55,0 -1,-0.45 -1,-1 z m -7.5,-2 c 0.339919,-0.55 0.816476,-1 1.059017,-1 C 44.801558,92 45,92.45 45,93 45,93.55 44.523442,94 43.940983,94 43.358524,94 43.160081,93.55 43.5,93 Z M 0,88.5 C 0,87.675 0.45,87 1,87 1.55,87 2,87.675 2,88.5 2,89.325 1.55,90 1,90 0.45,90 0,89.325 0,88.5 Z m 33.015313,0.75 C 33.023735,88.8375 33.466844,87.825 34,87 34.783874,85.787041 34.972305,85.930562 34.984687,87.75 34.993109,88.9875 34.55,90 34,90 33.45,90 33.006891,89.6625 33.015313,89.25 Z M 102,88.5 c 0,-0.825 0.45,-1.5 1,-1.5 0.55,0 1,0.675 1,1.5 0,0.825 -0.45,1.5 -1,1.5 -0.55,0 -1,-0.675 -1,-1.5 z m 61,-2.059017 c 0,-0.857459 0.45,-1.280902 1,-0.940983 0.55,0.339919 1,1.041476 1,1.559017 C 165,87.576558 164.55,88 164,88 c -0.55,0 -1,-0.701558 -1,-1.559017 z M 39,85.059017 c 0,-0.517541 0.45,-1.219098 1,-1.559017 0.55,-0.339919 1,0.08352 1,0.940983 C 41,85.298442 40.55,86 40,86 39.45,86 39,85.576558 39,85.059017 Z M 92,84.5 c 0,-0.825 0.45,-1.5 1,-1.5 0.55,0 1,0.675 1,1.5 0,0.825 -0.45,1.5 -1,1.5 -0.55,0 -1,-0.675 -1,-1.5 z M 35,83 c 0,-0.55 0.45,-1 1,-1 0.55,0 1,0.45 1,1 0,0.55 -0.45,1 -1,1 -0.55,0 -1,-0.45 -1,-1 z m 69,0 c 0,-0.55 0.45,-1 1,-1 0.55,0 1,0.45 1,1 0,0.55 -0.45,1 -1,1 -0.55,0 -1,-0.45 -1,-1 z m 57.72917,0.395833 C 161.32812,82.994792 161,81.976667 161,81.133333 c 0,-1.125593 0.29583,-1.2375 1.1125,-0.420833 0.61187,0.611875 0.94,1.63 0.72917,2.2625 -0.21084,0.6325 -0.71146,0.821875 -1.1125,0.420833 z M 82.872445,81.25 C 81.628574,79.663944 81.663944,79.628574 83.25,80.872445 c 0.9625,0.754844 1.75,1.542344 1.75,1.75 0,0.823034 -0.821186,0.293303 -2.127555,-1.372445 z m 72.794225,1.083333 C 155.3,81.966667 155,81.201667 155,80.633333 c 0,-0.626604 0.46577,-0.567562 1.18333,0.15 0.65084,0.650834 0.95084,1.415834 0.66667,1.7 -0.28417,0.284167 -0.81667,0.216667 -1.18333,-0.15 z M 41,81 c 0,-0.55 0.45,-1 1,-1 0.55,0 1,0.45 1,1 0,0.55 -0.45,1 -1,1 -0.55,0 -1,-0.45 -1,-1 z m 49.582949,0.134215 c -0.430771,-0.697003 -0.513159,-1.537338 -0.183085,-1.867413 0.894961,-0.894961 1.870768,0.421303 1.387387,1.871444 -0.338725,1.016175 -0.574267,1.015386 -1.204302,-0.004 z M 106,80 c 0,-0.55 0.47656,-1 1.05902,-1 0.58246,0 0.7809,0.45 0.44098,1 -0.33992,0.55 -0.81648,1 -1.05902,1 C 106.19844,81 106,80.55 106,80 Z M 37,79 c 0,-0.55 0.45,-1 1,-1 0.55,0 1,0.45 1,1 0,0.55 -0.45,1 -1,1 -0.55,0 -1,-0.45 -1,-1 z m 7.213807,-1.970751 c 0.676915,-1.083914 2.480728,-2.488508 4.008474,-3.121321 C 49.750026,73.275115 51,72.361953 51,71.87868 51,71.395406 51.9,71 53,71 c 1.1,0 2,-0.45 2,-1 0,-0.55 1.0125,-0.978355 2.25,-0.951901 1.573554,0.03364 0.446144,0.977634 -3.75,3.139923 -3.3,1.700503 -6.727783,3.928859 -7.617295,4.951901 -2.135672,2.45627 -3.226793,2.383911 -1.668898,-0.110674 z m 108.440163,0.511406 c -0.62439,-1.627133 -8.59386,-5.87826 -13.02197,-6.946265 -1.5774,-0.380449 -2.60945,-0.950269 -2.29346,-1.266266 C 138.10589,68.560777 147,71.22142 147,72.218315 147,72.648242 147.69545,73 148.54545,73 149.98493,73 155,77.238083 155,78.454545 c 0,1.172548 -1.817,0.46474 -2.34603,-0.91389 z M 159,77.440983 c 0,-0.857459 0.45,-1.280902 1,-0.940983 0.55,0.339919 1,1.041476 1,1.559017 C 161,78.576558 160.55,79 160,79 c -0.55,0 -1,-0.701558 -1,-1.559017 z m 31,0.5 c 0,-0.582459 0.45,-0.780902 1,-0.440983 0.55,0.339919 1,0.816476 1,1.059017 C 192,78.801558 191.55,79 191,79 c -0.55,0 -1,-0.476558 -1,-1.059017 z m -79.70578,-2.512982 c 1.52558,-1.414599 3.32099,-2.373599 3.98978,-2.131111 0.66984,0.242865 -0.0192,1.021014 -1.534,1.732513 C 111.2375,75.739798 110,76.698798 110,77.160515 110,77.622232 109.4421,78 108.76022,78 c -0.68188,0 0.008,-1.157399 1.534,-2.571999 z M 39,75 c 0,-0.55 0.45,-1 1,-1 0.55,0 1,0.45 1,1 0,0.55 -0.45,1 -1,1 -0.55,0 -1,-0.45 -1,-1 z m 24.761659,0.292739 c 1.243913,-0.239193 3.043913,-0.230112 4,0.02018 C 68.717747,75.563212 67.7,75.758916 65.5,75.747817 63.3,75.736717 62.517747,75.531932 63.761659,75.292739 Z M 81.5,73.532035 C 78.75,72.241585 75.375,70.724422 74,70.160561 l -2.5,-1.0252 2.690983,-0.06768 C 75.671024,69.030456 77.160081,69.45 77.5,70 c 0.339919,0.55 1.491476,1 2.559017,1 C 81.126558,71 82,71.45 82,72 c 0,0.55 0.5625,1.014312 1.25,1.031803 0.6875,0.01749 2.123508,0.692492 3.19113,1.5 2.782882,2.104867 0.835123,1.710765 -4.94113,-0.999768 z m 47.26166,1.760704 c 1.24391,-0.239193 3.04391,-0.230112 4,0.02018 0.95609,0.250292 -0.0617,0.445996 -2.26166,0.434897 -2.2,-0.0111 -2.98225,-0.215885 -1.73834,-0.455077 z M 157,74 c 0,-0.55 0.45,-1 1,-1 0.55,0 1,0.45 1,1 0,0.55 -0.45,1 -1,1 -0.55,0 -1,-0.45 -1,-1 z M 41,72 c 0,-0.55 0.45,-1 1,-1 0.55,0 1,0.45 1,1 0,0.55 -0.45,1 -1,1 -0.55,0 -1,-0.45 -1,-1 z m 75,0 c 0,-0.55 0.47656,-1 1.05902,-1 0.58246,0 0.7809,0.45 0.44098,1 -0.33992,0.55 -0.81648,1 -1.05902,1 C 116.19844,73 116,72.55 116,72 Z m 39,-1 c 0,-0.55 0.45,-1 1,-1 0.55,0 1,0.45 1,1 0,0.55 -0.45,1 -1,1 -0.55,0 -1,-0.45 -1,-1 z m -35.5,-1 c 0.33992,-0.55 1.60398,-0.968372 2.80902,-0.929715 2.11236,0.06776 2.11922,0.101124 0.19098,0.929715 -2.75248,1.182783 -3.731,1.182783 -3,0 z M 43,69 c 0,-0.55 0.45,-1 1,-1 0.55,0 1,0.45 1,1 0,0.55 -0.45,1 -1,1 -0.55,0 -1,-0.45 -1,-1 z m 110,-1 c 0,-0.55 0.45,-1 1,-1 0.55,0 1,0.45 1,1 0,0.55 -0.45,1 -1,1 -0.55,0 -1,-0.45 -1,-1 z m 35.5,-1 c -0.33992,-0.55 -0.14148,-1 0.44098,-1 0.58246,0 1.05902,0.45 1.05902,1 0,0.55 -0.19844,1 -0.44098,1 -0.24254,0 -0.7191,-0.45 -1.05902,-1 z M 45,66.428571 c 0,-1.062128 3.090724,-3.67118 3.666667,-3.095238 0.314285,0.314286 -0.125,1.267857 -0.976191,2.119048 C 46.102598,67.040259 45,67.440317 45,66.428571 Z M 10.157895,63 c 0,-1.375 0.226973,-1.9375 0.504386,-1.25 0.277412,0.6875 0.277412,1.8125 0,2.5 -0.277413,0.6875 -0.504386,0.125 -0.504386,-1.25 z M 53.54386,57.403509 c 2.52807,-2.52807 4.847591,-4.345392 5.15449,-4.038492 0.603705,0.603705 -7.695638,8.564204 -8.974666,8.608249 -0.426973,0.0147 1.292105,-2.041687 3.820176,-4.569757 z m 89.44883,0.590148 c -1.27234,-1.103489 -2.04346,-2.276216 -1.71362,-2.606061 0.32985,-0.329844 1.77245,0.57301 3.20578,2.006343 3.05551,3.05551 1.88282,3.526827 -1.49216,0.599718 z m -6.42126,-4.565086 c -1.05899,-0.774348 -1.64221,-1.691127 -1.29605,-2.037286 0.34616,-0.346159 1.37938,0.12062 2.29605,1.037286 2.15522,2.155223 1.48983,2.820611 -1,1 z M 60,52 c 0,-0.55 0.45,-1 1,-1 0.55,0 1,0.45 1,1 0,0.55 -0.45,1 -1,1 -0.55,0 -1,-0.45 -1,-1 z m 3,-2 c 0,-0.55 0.45,-1 1,-1 0.55,0 1,0.45 1,1 0,0.55 -0.45,1 -1,1 -0.55,0 -1,-0.45 -1,-1 z m 3,-2 c 0,-0.55 0.45,-1 1,-1 0.55,0 1,0.45 1,1 0,0.55 -0.45,1 -1,1 -0.55,0 -1,-0.45 -1,-1 z m 62,0 c 0,-0.55 0.45,-1 1,-1 0.55,0 1,0.45 1,1 0,0.55 -0.45,1 -1,1 -0.55,0 -1,-0.45 -1,-1 z M 70,46 c 0,-0.55 0.45,-1 1,-1 0.55,0 1,0.45 1,1 0,0.55 -0.45,1 -1,1 -0.55,0 -1,-0.45 -1,-1 z m 54,0 c 0,-0.55 0.42344,-1 0.94098,-1 0.51754,0 1.2191,0.45 1.55902,1 0.33992,0.55 -0.0835,1 -0.94098,1 C 124.70156,47 124,46.55 124,46 Z M 74.5,44 c 0.339919,-0.55 1.266476,-1 2.059017,-1 C 77.351558,43 78,43.45 78,44 78,44.55 77.073442,45 75.940983,45 74.808524,45 74.160081,44.55 74.5,44 Z m 43.5,0 c 0,-0.55 0.9,-1 2,-1 1.1,0 2,0.45 2,1 0,0.55 -0.9,1 -2,1 -1.1,0 -2,-0.45 -2,-1 z M 80.5,42 c 0.339919,-0.55 1.266476,-1 2.059017,-1 C 83.351558,41 84,41.45 84,42 84,42.55 83.073442,43 81.940983,43 80.808524,43 80.160081,42.55 80.5,42 Z m 31.5,0 c 0,-0.55 0.64844,-1 1.44098,-1 0.79254,0 1.7191,0.45 2.05902,1 0.33992,0.55 -0.30852,1 -1.44098,1 C 112.92656,43 112,42.55 112,42 Z M 91,40 c 0.825,-0.533156 3.075,-0.969374 5,-0.969374 1.925,0 4.175,0.436218 5,0.969374 1.05262,0.680256 -0.43864,0.969374 -5,0.969374 -4.561356,0 -6.052621,-0.289118 -5,-0.969374 z M 171.43709,30.75 168.5,27.5 l 3.25,2.937091 C 174.77946,33.174872 175.45965,34 174.68709,34 c -0.1721,0 -1.6346,-1.4625 -3.25,-3.25 z m -10.0321,-10 -1.90499,-2.25 2.25,1.904988 c 1.2375,1.047743 2.25,2.060243 2.25,2.25 0,0.800253 -0.80479,0.209457 -2.59501,-1.904988 z M 67.5,5 C 67.839919,4.45 68.316476,4 68.559017,4 68.801558,4 69,4.45 69,5 69,5.55 68.523442,6 67.940983,6 67.358524,6 67.160081,5.55 67.5,5 Z M 84,1 c 0,-1.30064101 3.69616,-1.30064101 4.5,0 0.350523,0.5671581 -0.489616,1 -1.940983,1 C 85.151558,2 84,1.55 84,1 Z m 20,0 c 0,-0.55 0.9,-1 2,-1 1.1,0 2,0.45 2,1 0,0.55 -0.9,1 -2,1 -1.1,0 -2,-0.45 -2,-1 z"
       id="path3803"
       inkscape:connector-curvature="0" />
    <path
       style="fill:#6f837a"
       d="m 90,195 c 0,-0.55556 -2.666667,-1 -6,-1 -3.333333,0 -6,-0.44444 -6,-1 0,-0.55 -1.323442,-1 -2.940983,-1 -1.617541,0 -3.219098,-0.45 -3.559017,-1 -0.339919,-0.55 -1.689919,-1 -3,-1 -1.310081,0 -2.660081,-0.45 -3,-1 -0.339919,-0.55 -1.491476,-1 -2.559017,-1 C 61.873442,188 61,187.55 61,187 c 0,-0.55 -0.9,-1 -2,-1 -1.1,0 -2,-0.39541 -2,-0.87868 0,-0.48327 -1.35,-1.43787 -3,-2.12132 -1.65,-0.68345 -3,-1.58345 -3,-2 0,-0.41655 -1.2375,-1.28946 -2.75,-1.9398 -1.5125,-0.65034 -5,-3.66824 -7.75,-6.70643 C 28.633158,159.2433 28.352892,159 25.117021,159 23.402659,159 22,158.55 22,158 c 0,-0.55 -0.9,-1 -2,-1 -1.1,0 -2,-0.45 -2,-1 0,-0.55 -0.71028,-1 -1.578401,-1 C 14.084983,155 6.9839376,147.16969 6.3228179,143.86409 6.0077681,142.28884 5.35625,141 4.875,141 4.39375,141 4,137.85 4,134 c 0,-4 0.4285714,-7 1,-7 0.55,0 1,-1.26 1,-2.8 0,-1.54 0.5512317,-3.35123 1.2249594,-4.02496 0.9666125,-0.96661 0.9666125,-1.63864 0,-3.18643 C 6.5512317,115.9098 6,114.34603 6,113.51357 6,112.68111 5.55,112 5,112 4.45,112 4,110.90156 4,109.55902 4,108.21648 3.55,106.83992 3,106.5 2.45,106.16008 2,104.10852 2,101.94098 2,99.773442 1.55,98 1,98 0.45,98 0,96.2 0,94 c 0,-2.2 0.45,-4 1,-4 0.55,0 1,-1.8 1,-4 0,-2.2 0.45,-4 1,-4 0.55,0 1,-1.35 1,-3 0,-1.65 0.45,-3 1,-3 0.55,0 1,-0.9 1,-2 0,-1.1 0.45,-2 1,-2 0.55,0 1,-0.6375 1,-1.416667 0,-0.779166 0.4468826,-1.566666 0.9930724,-1.75 C 9.5392623,68.65 10.54071,65.0125 11.218513,60.75 11.896315,56.4875 12.799433,53 13.22544,53 13.651448,53 14,51.65 14,50 c 0,-1.65 0.3375,-3.006997 0.75,-3.015549 0.4125,-0.0086 1.875,-2.324723 3.25,-5.147047 C 20.481978,36.742898 29.880489,26.334483 35.461141,22.5 38.71991,20.26089 44.234946,15.867081 45,14.900425 45.919191,13.739016 53.900277,10 55.460162,10 56.307073,10 57,9.55 57,9 57,8.45 57.873442,8 58.940983,8 60.008524,8 61.160081,7.55 61.5,7 61.839919,6.45 63.666476,6 65.559017,6 67.451558,6 69,5.55 69,5 69,4.45 70.575,4 72.5,4 74.425,4 76,3.55 76,3 76,2.4349746 78.853006,2 82.559017,2 86.677051,2 88.888028,1.6278432 88.5,1 88.107506,0.36493074 90.822949,0 95.940983,0 100.64699,0 104,0.41605641 104,1 c 0,0.5714286 3,1 7,1 4,0 7,0.4285714 7,1 0,0.55 2.025,1 4.5,1 2.475,0 4.5,0.45 4.5,1 0,0.55 1.54844,1 3.44098,1 1.89254,0 3.7191,0.45 4.05902,1 0.33992,0.55 1.94148,1 3.55902,1 C 139.67656,8 141,8.45 141,9 c 0,0.55 0.9,1 2,1 1.1,0 2,0.39375 2,0.875 0,0.48125 1.29576,1.134152 2.87946,1.450893 1.58371,0.316741 3.57657,1.272991 4.42858,2.125 0.852,0.852009 2.04324,1.549107 2.64718,1.549107 1.58548,0 10.42139,8.049521 17.64283,16.072635 2.63163,2.923776 4.76343,6.677509 5.95753,10.490175 1.02272,3.265454 2.6661,6.809543 3.65196,7.875751 C 183.19339,51.50477 184,53.197175 184,54.19946 c 0,1.635393 2.65718,8.452314 5.08171,13.036971 0.50506,0.955037 0.91829,3.992537 0.91829,6.75 C 190,76.743894 190.45,79 191,79 c 1.32008,0 1.33648,26.26352 0.0172,27.58277 -1.5372,1.5372 -1.76599,13.66582 -0.26723,14.1664 0.6875,0.22962 1.25,1.73 1.25,3.33416 0,1.60417 0.45,2.91667 1,2.91667 0.57778,0 1,3.16667 1,7.5 0,4.125 -0.40122,7.5 -0.89159,7.5 -0.49038,0 -1.16077,1.07248 -1.48976,2.38328 C 190.58321,148.50882 183.18203,155 179.51357,155 178.68111,155 178,155.45 178,156 c 0,0.55 -1.70066,1 -3.77924,1 -2.73269,0 -4.18653,0.59112 -5.25,2.13462 C 162.95522,167.86541 151.0445,180 148.49031,180 c -0.57683,0 -1.69747,0.9 -2.49031,2 -0.79284,1.1 -2.24218,2 -3.22076,2 -0.97858,0 -1.77924,0.45 -1.77924,1 0,0.55 -0.9,1 -2,1 -1.1,0 -2,0.45 -2,1 0,0.55 -0.9,1 -2,1 -1.1,0 -2,0.45 -2,1 0,0.55 -1.35,1 -3,1 -1.65,0 -3,0.45 -3,1 0,0.55 -1.35,1 -3,1 -1.65,0 -3,0.45 -3,1 0,0.55 -2.475,1 -5.5,1 -3.025,0 -5.5,0.45 -5.5,1 0,0.6 -4,1 -10,1 -6,0 -10,-0.4 -10,-1 z m 28.5,-6 c 0.33992,-0.55 1.91492,-1 3.5,-1 1.58508,0 3.16008,-0.45 3.5,-1 0.33992,-0.55 1.71648,-1 3.05902,-1 1.34254,0 2.44098,-0.45 2.44098,-1 0,-0.55 0.9,-1 2,-1 1.1,0 2,-0.45 2,-1 0,-0.55 0.9,-1 2,-1 1.1,0 2,-0.45 2,-1 0,-0.55 0.9,-1 2,-1 1.1,0 2,-0.41968 2,-0.93261 0,-0.51294 0.98527,-1.24533 2.18948,-1.62753 2.85202,-0.90519 16.59372,-14.96207 19.81052,-20.26488 2.28332,-3.76399 2.86325,-4.12352 6.69098,-4.14808 2.30504,-0.0148 4.4691,-0.4769 4.80902,-1.0269 0.33992,-0.55 1.40354,-1 2.3636,-1 2.24046,0 9.1364,-6.28416 9.1364,-8.32585 0,-0.85587 0.45,-1.83423 1,-2.17415 0.55,-0.33992 1,-3.06648 1,-6.05902 C 190,131.44844 189.55,129 189,129 c -0.55,0 -1,-1.35 -1,-3 0,-1.65 -0.45,-3 -1,-3 -0.55,0 -1,-0.675 -1,-1.5 0,-0.825 -0.45,-1.5 -1,-1.5 -0.55,0 -1,-1.54844 -1,-3.44098 0,-1.89254 0.45,-3.7191 1,-4.05902 0.55,-0.33992 1,-2.39148 1,-4.55902 0,-2.16754 0.45,-3.94098 1,-3.94098 0.60573,0 1,-4.313661 1,-10.940983 0,-6.215299 -0.43192,-11.207927 -1,-11.559017 -0.55,-0.339919 -1,-2.472027 -1,-4.738019 0,-4.598804 -1.34999,-9.460957 -4.1365,-14.898136 C 180.83858,59.863961 180,57.512337 180,56.638015 c 0,-0.874322 -0.89832,-3.063052 -1.99626,-4.863845 -1.09795,-1.800794 -1.99795,-4.06167 -2,-5.02417 C 176.00168,45.7875 175.55,45 175,45 c -0.55,0 -1,-0.837204 -1,-1.860453 0,-3.54054 -7.30976,-12.338276 -17.32341,-20.849757 C 153.45358,19.550267 146.603,16 144.53984,16 143.69293,16 143,15.55 143,15 c 0,-0.55 -0.9,-1 -2,-1 -1.1,0 -2,-0.45 -2,-1 0,-0.55 -1.32344,-1 -2.94098,-1 -1.61754,0 -3.2191,-0.45 -3.55902,-1 -0.33992,-0.55 -2.16648,-1 -4.05902,-1 C 126.54844,10 125,9.55 125,9 125,8.45 123.00156,8 120.55902,8 118.11648,8 115.83992,7.55 115.5,7 114.66831,5.6542973 79.33169,5.6542973 78.5,7 78.160081,7.55 76.108524,8 73.940983,8 71.773442,8 70,8.45 70,9 c 0,0.55 -1.575,1 -3.5,1 -1.925,0 -3.5,0.45 -3.5,1 0,0.55 -0.687833,1 -1.528517,1 -1.652808,0 -12.828622,5.412054 -15.131546,7.327676 -0.77514,0.644778 -1.956228,1.636366 -2.624641,2.203528 -0.668413,0.567161 -3.984314,3.147504 -7.368669,5.734094 -3.384356,2.58659 -7.656008,6.622549 -9.492562,8.968797 C 25.017512,38.580343 23.17403,40.65 22.757439,40.833333 22.340847,41.016667 22,42.029167 22,43.083333 22,44.1375 21.55,45 21,45 c -0.55,0 -1,0.9 -1,2 0,1.1 -0.340435,2 -0.756521,2 C 18.252137,49 16,56.269864 16,59.4699 16,62.935655 13.756687,71 12.792595,71 12.356668,71 12,71.675 12,72.5 c 0,0.825 -0.45,1.5 -1,1.5 -0.55,0 -1,0.9 -1,2 0,1.1 -0.45,2 -1,2 -0.55,0 -1,1.35 -1,3 0,1.65 -0.45,3 -1,3 -0.5996042,0 -1,3.980328 -1,9.940983 0,5.548633 0.4418427,10.214057 1,10.559017 0.55,0.33992 1,1.71648 1,3.05902 C 8,108.90156 8.45,110 9,110 c 0.55,0 1,0.87344 1,1.94098 0,1.06754 0.45,2.2191 1,2.55902 1.299659,0.80323 1.299659,7.19677 0,8 -0.55,0.33992 -1,1.94148 -1,3.55902 C 10,127.67656 9.55,129 9,129 c -0.55,0 -1,2.25 -1,5 0,2.75 0.45,5 1,5 0.55,0 1,1.03706 1,2.30458 C 10,143.70154 15.93553,151 17.88487,151 18.498192,151 19,151.45 19,152 c 0,0.55 0.873442,1 1.940983,1 1.067541,0 2.219098,0.45 2.559017,1 0.339919,0.55 2.338066,1 4.440328,1 3.243219,0 4.25434,0.56812 6.674098,3.75 1.568492,2.0625 3.534402,4.59871 4.368689,5.63603 2.645845,3.28973 9.632963,10.05767 11.990092,11.61397 1.249519,0.825 2.859571,2.0625 3.577894,2.75 0.718323,0.6875 2.013185,1.25 2.87747,1.25 0.864286,0 1.57494,0.3375 1.579231,0.75 0.0093,0.89806 4.851843,3.25 6.691563,3.25 C 66.414714,184 67,184.45 67,185 c 0,0.55 1.35,1 3,1 1.65,0 3,0.45 3,1 0,0.55 1.548442,1 3.440983,1 1.892541,0 3.719098,0.45 4.059017,1 0.375755,0.60798 7.824045,1 19,1 11.17595,0 18.62424,-0.39202 19,-1 z M 61.465736,121.12542 c -1.668845,-0.43151 -3.918845,-1.34524 -5,-2.0305 -1.939805,-1.2295 -1.939353,-1.23681 0.03426,-0.55476 5.40359,1.8674 10.419831,2.53504 14.5,1.92988 5.500658,-0.81585 7.668453,-1.90561 11.335891,-5.69861 1.559741,-1.61314 3.029059,-2.73981 3.265152,-2.50372 0.681451,0.68145 -4.7742,5.77047 -7.942777,7.40901 -3.442878,1.78038 -11.962121,2.54258 -16.19253,1.4487 z M 123.5,119.44399 c -2.47767,-1.21059 -2.56473,-1.35409 -0.5,-0.8242 1.375,0.35288 5.425,0.96198 9,1.35356 l 6.5,0.71197 -6,0.11223 c -3.46469,0.0648 -7.26766,-0.50713 -9,-1.35356 z M 139.5,119 c 0.33992,-0.55 1.07362,-1 1.63045,-1 0.55682,0 1.68741,-0.675 2.51241,-1.5 0.825,-0.825 1.95,-1.5 2.5,-1.5 1.29276,0 -1.06178,2.35106 -3.84775,3.84206 -2.65765,1.42233 -3.6098,1.47613 -2.79511,0.15794 z m -88,-2.21564 C 48.841787,115.24949 46.626417,113 47.773032,113 c 0.503739,0 2.223382,1.12445 3.821429,2.49878 3.127757,2.68989 3.095598,3.12755 -0.09446,1.28558 z M 116.5,116 c -1.65,-1.09275 -2.55,-1.97978 -2,-1.97117 1.00265,0.0157 6.43974,3.91294 5.5,3.94234 -0.275,0.009 -1.85,-0.87842 -3.5,-1.97117 z m 30.5,-3 c 0,-0.55 0.45,-1 1,-1 0.55,0 1,0.45 1,1 0,0.55 -0.45,1 -1,1 -0.55,0 -1,-0.45 -1,-1 z M 45,111 c 0,-0.55 0.45,-1 1,-1 0.55,0 1,0.45 1,1 0,0.55 -0.45,1 -1,1 -0.55,0 -1,-0.45 -1,-1 z m 65.45888,-1.06653 c -0.36253,-0.58659 -0.44468,-1.281 -0.18255,-1.54313 0.26212,-0.26213 0.74306,0.21781 1.06875,1.06653 0.67618,1.76211 0.0999,2.07206 -0.8862,0.4766 z M 86.5,109 c 0.339919,-0.55 0.816476,-1 1.059017,-1 C 87.801558,108 88,108.45 88,109 c 0,0.55 -0.476558,1 -1.059017,1 -0.582459,0 -0.780902,-0.45 -0.440983,-1 z M 43,107 c 0,-0.55 0.45,-1 1,-1 0.55,0 1,0.45 1,1 0,0.55 -0.45,1 -1,1 -0.55,0 -1,-0.45 -1,-1 z m 65.66667,-0.66667 C 108.3,105.96667 108,105.20167 108,104.63333 c 0,-0.6266 0.46577,-0.56756 1.18333,0.15 0.65084,0.65084 0.95084,1.41584 0.66667,1.7 -0.28417,0.28417 -0.81667,0.21667 -1.18333,-0.15 z M 151,105.55902 C 151,104.70156 151.45,104 152,104 c 0.55,0 1,0.42344 1,0.94098 0,0.51754 -0.45,1.2191 -1,1.55902 -0.55,0.33992 -1,-0.0835 -1,-0.94098 z M 88.473684,98 c 0,-4.4 0.343421,-8 0.763158,-8 C 89.656579,90 90,93.6 90,98 c 0,4.4 -0.343421,8 -0.763158,8 -0.419737,0 -0.763158,-3.6 -0.763158,-8 z M 57,103 c 0,-0.55 0.9,-1 2,-1 1.542857,0 2,-0.66667 2,-2.916667 0,-1.604166 -0.5625,-3.117559 -1.25,-3.363095 -0.6875,-0.245536 -0.888032,-0.832503 -0.445627,-1.304373 0.910338,-0.970967 2.424376,1.00071 3.305455,4.304575 0.359402,1.34768 -0.0091,2.82164 -0.937411,3.75 C 59.95157,104.19129 57,104.52581 57,103 Z m -6,-2 c 0,-0.55 0.45,-1 1,-1 0.55,0 1,0.45 1,1 0,0.55 -0.45,1 -1,1 -0.55,0 -1,-0.45 -1,-1 z m 0,-4 c 0,-0.55 0.45,-1 1,-1 0.55,0 1,0.45 1,1 0,0.55 -0.45,1 -1,1 -0.55,0 -1,-0.45 -1,-1 z m 83.25,-0.495831 c -2.09982,-2.384991 -1.38854,-4.029996 0.75,-1.734544 1.1,1.180712 2,2.390564 2,2.688562 0,0.996686 -1.4866,0.480963 -2.75,-0.954018 z M 53,93 c 0,-0.55 0.45,-1 1,-1 0.55,0 1,0.45 1,1 0,0.55 -0.45,1 -1,1 -0.55,0 -1,-0.45 -1,-1 z m 90,-1 c 0,-1.1 0.45,-2 1,-2 0.55,0 1,0.9 1,2 0,1.1 -0.45,2 -1,2 -0.55,0 -1,-0.9 -1,-2 z M 43,91.559017 C 43,90.701558 43.45,90 44,90 c 0.55,0 1,0.423442 1,0.940983 0,0.517541 -0.45,1.219098 -1,1.559017 -0.55,0.339919 -1,-0.08352 -1,-0.940983 z M 108.01531,90.25 C 108.00689,89.0125 108.45,88 109,88 c 1.25292,0 1.25292,1.061241 0,3 -0.78387,1.212959 -0.9723,1.069438 -0.98469,-0.75 z m 25.01532,1.25 c 0,-0.55 0.43621,-1.675 0.96937,-2.5 0.53316,-0.825 0.96937,-1.05 0.96937,-0.5 0,0.55 -0.43621,1.675 -0.96937,2.5 -0.53316,0.825 -0.96937,1.05 -0.96937,0.5 z m 18.50059,-2.793128 c -0.42806,-0.986221 -0.4977,-2.073721 -0.15476,-2.416667 1.01549,-1.015491 1.83409,0.410947 1.3667,2.381526 -0.41435,1.746944 -0.46826,1.748507 -1.21194,0.03514 z M 138.5,88 c -2.76761,-0.704237 -2.80634,-0.771349 -0.5,-0.866372 1.375,-0.05665 3.175,0.333216 4,0.866372 1.70194,1.099879 0.82246,1.099879 -3.5,0 z M 86.08102,85.151388 c -1.633506,-3.052235 -1.295255,-3.902264 0.520979,-1.309227 0.881099,1.257946 1.367559,2.521615 1.08102,2.808153 -0.286538,0.286538 -1.007438,-0.387978 -1.601999,-1.498926 z M 110,85 c 0,-0.55 0.47656,-1 1.05902,-1 0.58246,0 0.7809,0.45 0.44098,1 -0.33992,0.55 -0.81648,1 -1.05902,1 C 110.19844,86 110,85.55 110,85 Z M 47,83.428571 c 0,-0.9389 2.375722,-3.026027 5.020636,-4.410747 C 54.1239,77.91668 54.008381,78.196107 51.259102,80.859888 48.094747,83.925837 47,84.586083 47,83.428571 Z M 149,83 c 0,-0.55 0.45,-1 1,-1 0.55,0 1,0.45 1,1 0,0.55 -0.45,1 -1,1 -0.55,0 -1,-0.45 -1,-1 z m -37,-0.377555 c 0,-0.207656 0.7875,-0.995156 1.75,-1.75 1.58606,-1.243871 1.62143,-1.208501 0.37756,0.377555 C 112.82119,82.915748 112,83.445479 112,82.622445 Z m 33.82143,-2.902705 c -3.8434,-3.723661 -20.81041,-5.633626 -24.30222,-2.735684 -0.86215,0.71552 -1.82021,1.048279 -2.12902,0.739465 -1.0348,-1.034802 3.34865,-2.675674 8.75465,-3.277161 3.96136,-0.440751 6.99326,-0.06302 11.64897,1.451283 C 145.40103,77.721437 150.76578,81 148.14286,81 c -0.55,0 -1.59465,-0.576117 -2.32143,-1.28026 z M 76.5,77.712291 C 71.824808,75.29318 57.959862,74.620414 57.240741,76.777778 57.016667,77.45 56.324405,78 55.702381,78 55.080357,78 55.35932,77.2125 56.322299,76.25 58.898512,73.675069 70.915929,74.000623 77.25,76.816936 79.8625,77.97853 82,79.169917 82,79.464463 c 0,0.851061 -1.220275,0.462309 -5.5,-1.752172 z M 116.5,79 c 0.33992,-0.55 0.81648,-1 1.05902,-1 0.24254,0 0.44098,0.45 0.44098,1 0,0.55 -0.47656,1 -1.05902,1 -0.58246,0 -0.7809,-0.45 -0.44098,-1 z"
       id="path3801"
       inkscape:connector-curvature="0" />
    <path
       style="fill:#834c30"
       d="m 80.5,189 c -0.339919,-0.55 -0.168034,-1 0.381966,-1 0.55,0 1.278115,0.45 1.618034,1 0.339919,0.55 0.168034,1 -0.381966,1 -0.55,0 -1.278115,-0.45 -1.618034,-1 z m 36,0 c 0.33992,-0.55 1.06803,-1 1.61803,-1 0.55,0 0.72189,0.45 0.38197,1 -0.33992,0.55 -1.06803,1 -1.61803,1 -0.55,0 -0.72189,-0.45 -0.38197,-1 z M 73,186.94098 c 0,-0.58246 0.45,-0.7809 1,-0.44098 0.55,0.33992 1,0.81648 1,1.05902 C 75,187.80156 74.55,188 74,188 c -0.55,0 -1,-0.47656 -1,-1.05902 z m -6,-2 c 0,-0.58246 0.45,-0.7809 1,-0.44098 0.55,0.33992 1,0.81648 1,1.05902 C 69,185.80156 68.55,186 68,186 c -0.55,0 -1,-0.47656 -1,-1.05902 z M 129.5,185 c 0.33992,-0.55 0.81648,-1 1.05902,-1 0.24254,0 0.44098,0.45 0.44098,1 0,0.55 -0.47656,1 -1.05902,1 -0.58246,0 -0.7809,-0.45 -0.44098,-1 z M 85,181 c -1.235731,-0.79859 -1.147641,-0.95451 0.5,-0.88501 1.1,0.0464 3.125,0.44466 4.5,0.88501 2.44987,0.78459 2.439845,0.80233 -0.5,0.88501 C 87.85,181.93141 85.825,181.53316 85,181 Z m 21.08333,0.63916 c 1.13143,-0.97984 9.00997,-1.59914 8.43125,-0.66275 -0.34794,0.56298 -2.48106,1.02359 -4.74026,1.02359 -2.25921,0 -3.92015,-0.16238 -3.69099,-0.36084 z M 76,179 c -1.333333,-0.86167 -1.333333,-0.96327 0,-0.9144 0.825,0.0302 2.4,0.44171 3.5,0.9144 l 2,0.85943 -2,0.055 C 78.4,179.94464 76.825,179.53316 76,179 Z m 43,0 c 1.97012,-1.27319 4.28687,-1.27319 3.5,0 -0.33992,0.55 -1.60398,0.99311 -2.80902,0.98469 C 117.90975,179.97224 117.78052,179.78809 119,179 Z m -53.729619,-4.21927 c -8.57989,-4.34506 -7.250945,-4.58329 1.823119,-0.32681 4.073575,1.91083 6.7315,3.47591 5.9065,3.47794 -0.825,0.002 -4.303329,-1.41598 -7.729619,-3.15113 z M 130.8597,174.5 c 4.0168,-1.925 7.6041,-3.47817 7.97179,-3.45148 1.22196,0.0887 -12.30522,6.85357 -13.80328,6.90296 -0.80948,0.0267 1.81469,-1.52648 5.83149,-3.45148 z M 146,176 c 0.825,-0.53316 1.95,-0.96937 2.5,-0.96937 0.55,0 0.325,0.43621 -0.5,0.96937 -0.825,0.53316 -1.95,0.96937 -2.5,0.96937 -0.55,0 -0.325,-0.43621 0.5,-0.96937 z m -57,-1 c -1.142045,-0.73805 -0.741477,-0.97303 1.678571,-0.98469 1.748215,-0.008 3.853572,-0.69031 4.678572,-1.51531 0.825,-0.825 2.121134,-1.5 2.880299,-1.5 1.617961,0 5.763838,2.92121 4.212558,2.9682 -0.5775,0.0175 -1.53646,-0.45466 -2.13102,-1.04922 -0.774698,-0.7747 -2.236918,-0.49133 -5.160164,1 C 90.439605,176.32654 90.921727,176.24192 89,175 Z m 15.56563,0.1062 c -0.30382,-0.49159 0.45713,-0.86903 1.69099,-0.83875 1.23386,0.0303 3.14338,-0.27359 4.24338,-0.67527 1.26691,-0.46262 1.08364,-0.16817 -0.5,0.80331 -2.86921,1.76013 -4.64246,1.99204 -5.43437,0.71071 z M 85,172.5 c -0.717549,-0.86459 -0.814738,-1.5 -0.229434,-1.5 0.558501,0 1.274478,0.675 1.59106,1.5 0.316583,0.825 0.419828,1.5 0.229434,1.5 -0.190394,0 -0.906371,-0.675 -1.59106,-1.5 z m 27,-1.38197 c 0,-0.55 0.45,-1.27811 1,-1.61803 0.55,-0.33992 1,-0.16803 1,0.38197 0,0.55 -0.45,1.27811 -1,1.61803 -0.55,0.33992 -1,0.16803 -1,-0.38197 z M 56,169 c -0.825,-0.53316 -1.05,-0.96937 -0.5,-0.96937 0.55,0 1.675,0.43621 2.5,0.96937 0.825,0.53316 1.05,0.96937 0.5,0.96937 -0.55,0 -1.675,-0.43621 -2.5,-0.96937 z m 33.06342,0.0604 c -1.134785,-0.71805 -1.201523,-1.39759 -0.31768,-3.23469 1.108901,-2.30489 1.119504,-2.30005 1.18658,0.54096 0.05575,2.36144 0.42039,2.7744 2.06906,2.34326 1.100759,-0.28785 1.749201,-0.11534 1.440983,0.38337 -0.710792,1.15008 -2.531005,1.13641 -4.378943,-0.0329 z m 16.68658,0.23391 c 1.83192,-0.35285 2.26178,-1.11725 2.31339,-4.11382 0.0567,-3.29453 0.1611,-3.43671 0.99532,-1.35597 1.24763,3.11187 -0.47107,6.21598 -3.34389,6.03934 L 103.5,169.72768 Z m 33.33333,0.34118 c 0.22917,-0.2005 1.54167,-0.90032 2.91667,-1.55516 2.35727,-1.12265 2.38918,-1.10183 0.55887,0.36454 -1.593,1.27626 -4.84786,2.39128 -3.47554,1.19062 z M 102,166.44098 c 0,-0.85746 0.45,-1.2809 1,-0.94098 0.55,0.33992 1,1.04148 1,1.55902 0,0.51754 -0.45,0.94098 -1,0.94098 -0.55,0 -1,-0.70156 -1,-1.55902 z M 94,166 c 0,-0.55 0.45,-1 1,-1 0.55,0 1,0.45 1,1 0,0.55 -0.45,1 -1,1 -0.55,0 -1,-0.45 -1,-1 z m -9.984687,-3.19098 C 84.023735,162.08906 84.466844,160.825 85,160 c 0.788086,-1.21948 0.972238,-1.09025 0.984687,0.69098 C 85.993109,161.89602 85.55,163.16008 85,163.5 c -0.55,0.33992 -0.993109,0.029 -0.984687,-0.69098 z m 28.705147,-1.14081 c -0.39625,-1.00748 -0.70678,-2.58248 -0.69005,-3.5 0.0271,-1.48832 0.14221,-1.47612 1.06727,0.11321 0.57028,0.97978 0.8808,2.55478 0.69005,3.5 -0.31674,1.56951 -0.40931,1.55969 -1.06727,-0.11321 z m -77.740516,-2.19238 c -0.69572,-0.83829 -1.071285,-1.71782 -0.83459,-1.95452 0.236696,-0.23669 0.979634,0.44918 1.650975,1.52417 1.451813,2.32472 0.967628,2.57996 -0.816385,0.43035 z M 96,160.10699 c 0,-1.49973 3.07147,-2.1735 4.83594,-1.06084 1.37253,0.86551 1.26988,0.94158 -0.58594,0.43421 C 98.937766,159.1216 98,159.3101 98,159.93261 98,160.51968 97.55,161 97,161 c -0.55,0 -1,-0.40186 -1,-0.89301 z m -6,-1.04797 c 0,-0.51754 0.45,-1.2191 1,-1.55902 0.55,-0.33992 1,0.0835 1,0.94098 C 92,159.29844 91.55,160 91,160 c -0.55,0 -1,-0.42344 -1,-0.94098 z M 106.01531,156.75 c 0.0124,-1.81944 0.20082,-1.96296 0.98469,-0.75 1.25292,1.93876 1.25292,3 0,3 -0.55,0 -0.99311,-1.0125 -0.98469,-2.25 z m 58.54898,-0.0431 c 0.37553,-0.98622 0.93469,-1.54122 1.24258,-1.23333 0.30789,0.30789 6.4e-4,1.11479 -0.68278,1.79313 -0.98762,0.98026 -1.10248,0.8654 -0.5598,-0.5598 z M 42.606989,155.41821 C 41.668041,152.97135 41.871939,152.72908 43.5,154.35714 45.200041,156.05718 45.416579,157 44.106989,157 c -0.491156,0 -1.166156,-0.7118 -1.5,-1.58179 z M 86.030626,156.5 c 0,-0.55 0.436218,-1.675 0.969374,-2.5 0.533156,-0.825 0.969374,-1.05 0.969374,-0.5 0,0.55 -0.436218,1.675 -0.969374,2.5 -0.533156,0.825 -0.969374,1.05 -0.969374,0.5 z M 92,154 c 0,-0.55 0.45,-1 1,-1 0.55,0 1,0.45 1,1 0,0.55 -0.45,1 -1,1 -0.55,0 -1,-0.45 -1,-1 z m 18.52392,-0.92464 C 110.16164,151.93391 109.44555,151 108.93261,151 108.41968,151 108,150.55 108,150 c 0,-0.55 0.37777,-1 0.83948,-1 0.98039,0 3.44771,5.04615 2.78927,5.70459 -0.24538,0.24537 -0.74255,-0.48778 -1.10483,-1.62923 z M 155,154.42857 c 0,-0.31428 0.675,-1.24643 1.5,-2.07143 1.62806,-1.62806 1.83196,-1.38579 0.89301,1.06107 C 156.82252,154.9049 155,155.67439 155,154.42857 Z M 104,152 c 0,-0.55 0.45,-1 1,-1 0.55,0 1,0.45 1,1 0,0.55 -0.45,1 -1,1 -0.55,0 -1,-0.45 -1,-1 z m 71,0 c 0,-0.55 0.47656,-1 1.05902,-1 0.58246,0 0.7809,0.45 0.44098,1 -0.33992,0.55 -0.81648,1 -1.05902,1 C 175.19844,153 175,152.55 175,152 Z M 39,150 c 0,-0.55 0.45,-1 1,-1 0.55,0 1,0.45 1,1 0,0.55 -0.45,1 -1,1 -0.55,0 -1,-0.45 -1,-1 z m 49,0.42857 c 0,-1.06213 3.090724,-3.67118 3.666667,-3.09524 0.314285,0.31429 -0.125,1.26786 -0.976191,2.11905 C 89.102598,151.04026 88,151.44032 88,150.42857 Z M 94,150 c 0,-0.55 0.45,-1 1,-1 0.55,0 1,0.45 1,1 0,0.55 -0.45,1 -1,1 -0.55,0 -1,-0.45 -1,-1 z m 86,0 c 0,-0.55 0.47656,-1 1.05902,-1 0.58246,0 0.7809,0.45 0.44098,1 -0.33992,0.55 -0.81648,1 -1.05902,1 C 180.19844,151 180,150.55 180,150 Z m -21,-2 c 0,-0.55 0.45,-1 1,-1 0.55,0 1,0.45 1,1 0,0.55 -0.45,1 -1,1 -0.55,0 -1,-0.45 -1,-1 z M 27,146 c 0,-0.55 0.45,-1 1,-1 0.55,0 1,0.45 1,1 0,0.55 -0.45,1 -1,1 -0.55,0 -1,-0.45 -1,-1 z m 3,-0.91821 c 0,-1.05502 -0.29123,-2.74252 -0.647179,-3.75 -0.436778,-1.23627 -0.316199,-1.50669 0.370892,-0.83179 1.502656,1.47598 2.503856,6.5 1.295339,6.5 C 30.458573,147 30,146.1368 30,145.08179 Z m 6.162441,-0.62462 c -1.675489,-3.67729 -1.355835,-4.46179 0.455855,-1.11876 0.846022,1.56112 1.351103,3.02552 1.122403,3.25422 -0.2287,0.2287 -0.938916,-0.73225 -1.578258,-2.13546 z M 10.5,144 c -0.339919,-0.55 -0.141476,-1 0.440983,-1 C 11.523442,143 12,143.45 12,144 c 0,0.55 -0.198442,1 -0.440983,1 -0.242541,0 -0.719098,-0.45 -1.059017,-1 z m 12,0 c -0.339919,-0.55 -0.141476,-1 0.440983,-1 C 23.523442,143 24,143.45 24,144 c 0,0.55 -0.198442,1 -0.440983,1 -0.242541,0 -0.719098,-0.45 -1.059017,-1 z m 138.5,0 c 0,-0.55 0.45,-1 1,-1 0.55,0 1,0.45 1,1 0,0.55 -0.45,1 -1,1 -0.55,0 -1,-0.45 -1,-1 z m 9,0 c 0,-0.55 0.675,-1 1.5,-1 0.825,0 1.5,0.45 1.5,1 0,0.55 -0.675,1 -1.5,1 -0.825,0 -1.5,-0.45 -1.5,-1 z m 16,0 c 0,-0.55 0.45,-1 1,-1 0.55,0 1,0.45 1,1 0,0.55 -0.45,1 -1,1 -0.55,0 -1,-0.45 -1,-1 z M 19.178214,141.3645 c -0.726983,-0.78858 -1.139882,-1.9795 -0.917555,-2.64648 0.234844,-0.70453 0.927431,-0.23509 1.652807,1.12029 1.482683,2.77042 1.115132,3.53336 -0.735252,1.52619 z m 148.903006,1.51577 c -0.0447,-0.34085 0.79602,-3.36573 1.86821,-6.72197 1.07218,-3.35623 2.2482,-7.69482 2.61336,-9.64131 0.81873,-4.36422 2.12369,-5.28387 4.28317,-3.0185 1.55115,1.6272 1.52463,1.66913 -0.42624,0.67397 -1.95296,-0.99622 -2.18615,-0.62087 -3.81025,6.13319 -1.55722,6.47589 -4.32151,14.15213 -4.52825,12.57462 z M 176,142.42857 c 0,-1.06213 3.09072,-3.67118 3.66667,-3.09524 0.31428,0.31429 -0.125,1.26786 -0.97619,2.11905 C 177.1026,143.04026 176,143.44032 176,142.42857 Z M 163.45697,139.5 c 1.68037,-4.47306 2.80195,-8.2995 4.10361,-14 l 1.37005,-6 -0.47448,5 c -0.52947,5.5793 -3.1543,14.46528 -4.72625,16 -0.69561,0.67913 -0.78318,0.35827 -0.27293,-1 z m 24.55834,0.80902 C 188.02373,139.86406 188.46684,138.825 189,138 c 0.8354,-1.29269 0.97149,-1.26629 0.98469,0.19098 0.008,0.93004 -0.43469,1.9691 -0.98469,2.30902 -0.55,0.33992 -0.99311,0.25398 -0.98469,-0.19098 z M 33.582949,139.13421 c -0.430771,-0.697 -0.513159,-1.53733 -0.183085,-1.86741 0.894961,-0.89496 1.870768,0.4213 1.387387,1.87145 -0.338725,1.01617 -0.574267,1.01538 -1.204302,-0.004 z M 8,137.94098 c 0,-0.58246 0.45,-0.7809 1,-0.44098 0.55,0.33992 1,0.81648 1,1.05902 C 10,138.80156 9.55,139 9,139 8.45,139 8,138.52344 8,137.94098 Z M 27.5,137 c -0.375437,-1.1829 -0.457612,-2.37572 -0.182612,-2.65072 0.275,-0.275 0.807175,0.46782 1.182612,1.65072 0.375437,1.1829 0.457612,2.37572 0.182612,2.65072 C 28.407612,138.92572 27.875437,138.1829 27.5,137 Z m -10.267997,-3 c 0,-1.925 0.205795,-2.7125 0.457323,-1.75 0.251527,0.9625 0.251527,2.5375 0,3.5 -0.251528,0.9625 -0.457323,0.175 -0.457323,-1.75 z m 162.828817,0 c 0,-2.8554 0.18772,-3.1777 1.01928,-1.75 0.69237,1.18874 0.69237,2.31126 0,3.5 -0.83156,1.4277 -1.01928,1.1054 -1.01928,-1.75 z M 31.720456,133.66821 c -1.114269,-2.83307 -0.932617,-4.28037 0.373324,-2.97443 0.601579,0.60158 0.925784,1.92908 0.720456,2.95 -0.360072,1.79033 -0.3989,1.79119 -1.09378,0.0244 z M 98,134 c 0,-0.55 1.151558,-1 2.55902,-1 1.45136,0 2.2915,0.43284 1.94098,1 -0.33992,0.55 -1.49148,1 -2.559017,1 C 98.873442,135 98,134.55 98,134 Z m -72.375,-4.125 c -0.833651,-4.16825 -0.02576,-4.97614 0.875,-0.875 0.379677,1.72866 0.481874,3.35146 0.227105,3.60623 C 26.472336,132.861 25.976389,131.63194 25.625,129.875 Z M 94,132 c 0,-0.55 0.45,-1 1,-1 0.55,0 1,0.45 1,1 0,0.55 -0.45,1 -1,1 -0.55,0 -1,-0.45 -1,-1 z m 10,0 c 0,-0.55 0.45,-1 1,-1 0.55,0 1,0.45 1,1 0,0.55 -0.45,1 -1,1 -0.55,0 -1,-0.45 -1,-1 z M 8,130 c 0,-0.55 0.4765576,-1 1.059017,-1 0.5824593,0 0.7809017,0.45 0.440983,1 -0.3399187,0.55 -0.8164763,1 -1.059017,1 C 8.1984424,131 8,130.55 8,130 Z m 180,0 c 0,-0.55 0.45,-1 1,-1 0.55,0 1,0.45 1,1 0,0.55 -0.45,1 -1,1 -0.55,0 -1,-0.45 -1,-1 z M 18,128.55902 c 0,-0.79254 0.408034,-1.69316 0.906741,-2.00138 0.498708,-0.30822 0.671224,0.34022 0.383369,1.44098 C 18.679497,130.33361 18,130.62877 18,128.55902 Z M 106,125 c 0,-3.15738 0.38309,-4.88127 1,-4.5 0.55,0.33992 1,2.36492 1,4.5 0,2.13508 -0.45,4.16008 -1,4.5 -0.61691,0.38127 -1,-1.34262 -1,-4.5 z m -76.365743,0.11423 c -0.385323,-2.40968 -0.489681,-4.59214 -0.231905,-4.84992 0.67146,-0.67146 1.885215,6.37299 1.366293,7.92975 -0.23859,0.71578 -0.749065,-0.67015 -1.134388,-3.07983 z M 98.75,128.33772 c 0.6875,-0.27741 1.8125,-0.27741 2.5,0 0.6875,0.27741 0.125,0.50439 -1.25,0.50439 -1.375,0 -1.9375,-0.22698 -1.25,-0.50439 z m 79.91667,-0.004 C 178.3,127.96667 178,127.20167 178,126.63333 c 0,-0.6266 0.46577,-0.56756 1.18333,0.15 0.65084,0.65084 0.95084,1.41584 0.66667,1.7 -0.28417,0.28417 -0.81667,0.21667 -1.18333,-0.15 z M 59,125.82572 c -8.09861,-3.3655 -11.946556,-5.2125 -11.593997,-5.56506 0.220102,-0.2201 2.131294,0.46047 4.247092,1.51239 6.197466,3.08119 12.914086,4.5105 18.873471,4.0163 3.089912,-0.25624 4.985675,-0.0965 4.266894,0.35946 C 72.978643,127.30012 62.007867,127.07569 59,125.82572 Z M 90,126 c 0,-0.55 0.45,-1 1,-1 0.55,0 1,0.45 1,1 0,0.55 -0.45,1 -1,1 -0.55,0 -1,-0.45 -1,-1 z m 6,0 c 0,-0.55 0.45,-1 1,-1 0.55,0 1,0.45 1,1 0,0.55 -0.45,1 -1,1 -0.55,0 -1,-0.45 -1,-1 z m 32,0.0262 c -1.75809,-0.54463 -0.57104,-0.77807 4,-0.78663 4.31362,-0.008 5.82727,0.26232 4.5,0.80386 -2.46188,1.00448 -5.21994,0.99889 -8.5,-0.0172 z M 21.383647,123.25635 c 2.038436,-2.39073 3.625489,-2.14716 3.60104,0.55267 -0.01269,1.40161 -0.170776,1.44529 -0.923784,0.25528 -0.785089,-1.24071 -1.156498,-1.24305 -2.734688,-0.0172 -1.677112,1.30265 -1.672423,1.23809 0.05743,-0.79072 z M 78,124.27847 c 0.825,-0.31 2.694467,-1.39948 4.15437,-2.42105 C 83.614274,120.83584 85.181235,120 85.636505,120 c 0.45527,0 -0.827822,1.125 -2.851317,2.5 -2.023494,1.375 -4.265455,2.46447 -4.982134,2.42105 C 76.920764,124.8676 76.984359,124.6601 78,124.27847 Z m 38.75,-2.09391 c -2.6125,-1.45137 -4.75,-3.01728 -4.75,-3.4798 0,-0.46252 1.2375,0.0156 2.75,1.06254 1.5125,1.04692 4.55,2.62937 6.75,3.51656 2.23605,0.90174 3.11802,1.59687 2,1.57632 -1.1,-0.0202 -4.1375,-1.22425 -6.75,-2.67562 z m 24.68643,1.27186 c 1.61504,-0.84219 3.64004,-1.34162 4.5,-1.10984 0.95537,0.25749 0.68836,0.46654 -0.68643,0.53742 -1.2375,0.0638 -2.25,0.566 -2.25,1.116 0,0.55 -1.0125,0.99723 -2.25,0.99384 -2.03685,-0.006 -1.97183,-0.15122 0.68643,-1.53742 z M 90,122.11546 c 0,-0.89777 3.004879,-2.44391 3.59765,-1.85114 0.171266,0.17126 -0.568142,0.86067 -1.643128,1.53201 C 90.879535,122.46767 90,122.61128 90,122.11546 Z m -78,-3.67448 c 0,-0.85746 0.45,-1.2809 1,-0.94098 0.55,0.33992 1,1.04148 1,1.55902 C 14,119.57656 13.55,120 13,120 c -0.55,0 -1,-0.70156 -1,-1.55902 z m 157.18908,-5.50732 c -0.10399,-3.61149 -0.67003,-9.16804 -1.25786,-12.34789 -0.58782,-3.179852 -0.85844,-5.991884 -0.60136,-6.24896 0.95577,-0.955772 2.76911,13.46664 2.41521,19.20943 L 169.37817,119.5 Z M 103,117 c -1.21296,-0.78387 -1.06944,-0.9723 0.75,-0.98469 1.2375,-0.008 2.25,0.43469 2.25,0.98469 0,1.25292 -1.06124,1.25292 -3,0 z m -14.5,-1 c 0.339919,-0.55 0.816476,-1 1.059017,-1 C 89.801558,115 90,115.45 90,116 c 0,0.55 -0.476558,1 -1.059017,1 -0.582459,0 -0.780902,-0.45 -0.440983,-1 z m -60.200336,-5 c 0,-3.025 0.187466,-4.2625 0.41659,-2.75 0.229125,1.5125 0.229125,3.9875 0,5.5 -0.229124,1.5125 -0.41659,0.275 -0.41659,-2.75 z m -9.885948,-3.18736 C 15.985872,102.7273 15.5,100.44148 15.5,94.104801 c 0,-7.90089 1.195192,-11.619659 6.01911,-18.728099 1.412563,-2.081528 2.612059,-5.732164 3.012274,-9.167778 0.723199,-6.208258 2.590943,-12.611012 5.086511,-17.436907 C 31.324936,45.470964 44.495272,32 46.015615,32 c 0.504745,0 2.492718,-1.575 4.417718,-3.5 1.925,-1.925 3.809079,-3.5 4.186842,-3.5 0.377763,0 3.057655,-1.121574 5.955316,-2.492387 6.648871,-3.14542 14.463469,-5.296811 25.924509,-7.137124 7.23158,-1.161184 10.670175,-1.22382 17.5,-0.318777 27.49897,3.643984 41.34519,9.130482 53.08532,21.034797 4.27548,4.335278 7.22833,8.231762 7.58332,10.00669 C 164.98839,47.691939 165.64375,49 166.125,49 c 0.48125,0 0.875,0.585286 0.875,1.300635 0,1.83972 2.35194,6.682221 3.25,6.691563 0.4125,0.0043 0.75168,1.245302 0.75374,2.757802 0.002,1.5125 0.92055,4.253784 2.04109,6.091742 3.32726,5.457493 5.20652,17.04002 4.80696,29.626968 -0.28522,8.98476 -0.69778,11.52014 -2.1033,12.92566 C 174.08384,110.05902 174,109.85408 174,104.12022 174,94.631027 169.68676,80.628138 164.00342,71.666444 162.35154,69.061698 161,66.689076 161,66.39395 161,65.108613 143.88022,49 142.5142,49 141.68139,49 141,48.626041 141,48.16898 c 0,-0.457061 -1.2375,-1.468844 -2.75,-2.248406 -1.5125,-0.779562 -2.975,-1.649173 -3.25,-1.932469 -0.56159,-0.578528 -9.42295,-4.832553 -12.5,-6.000807 C 115.83576,35.457112 110.79943,34.757041 98.388786,34.635744 85.237753,34.507211 78.978012,35.387181 73.763569,38.097464 72.808532,38.593859 71.346032,39 70.513569,39 69.681106,39 69,39.45 69,40 c 0,0.55 -0.9,1 -2,1 -1.1,0 -2,0.45 -2,1 0,0.55 -0.800658,1 -1.779241,1 -0.978582,0 -2.427924,0.9 -3.220759,2 -0.792835,1.1 -2.024435,2 -2.736888,2 -1.984896,0 -15.469429,13.930722 -19.924355,20.58363 -7.734991,11.551302 -12.515035,24.854815 -13.89809,38.68027 -0.372151,3.72015 -0.999873,6.96367 -1.394937,7.20784 -0.395064,0.24416 -2.029471,-2.30244 -3.632014,-5.6591 z M 90,113 c 0,-0.55 0.45,-1 1,-1 0.55,0 1,0.45 1,1 0,0.55 -0.45,1 -1,1 -0.55,0 -1,-0.45 -1,-1 z m 16,0 c 0,-0.55 0.45,-1 1,-1 0.55,0 1,0.45 1,1 0,0.55 -0.45,1 -1,1 -0.55,0 -1,-0.45 -1,-1 z m 47,0 c 0,-0.55 0.45,-1 1,-1 0.55,0 1,0.45 1,1 0,0.55 -0.45,1 -1,1 -0.55,0 -1,-0.45 -1,-1 z M 39.5,111 c -0.339919,-0.55 -0.141476,-1 0.440983,-1 C 40.523442,110 41,110.45 41,111 c 0,0.55 -0.198442,1 -0.440983,1 -0.242541,0 -0.719098,-0.45 -1.059017,-1 z M 92,109.05902 c 0,-0.51754 0.45,-1.2191 1,-1.55902 0.55,-0.33992 1,0.0835 1,0.94098 C 94,109.29844 93.55,110 93,110 c -0.55,0 -1,-0.42344 -1,-0.94098 z M 104,109 c 0,-0.55 0.45,-1 1,-1 0.55,0 1,0.45 1,1 0,0.55 -0.45,1 -1,1 -0.55,0 -1,-0.45 -1,-1 z m 51,0 c 0,-0.55 0.45,-1 1,-1 0.55,0 1,0.45 1,1 0,0.55 -0.45,1 -1,1 -0.55,0 -1,-0.45 -1,-1 z M 37.666667,106.33333 C 36.64121,105.30788 36.906609,94.691902 38,93 c 0.672058,-1.039935 0.974071,0.877003 0.984687,6.25 0.01536,7.77614 -0.08513,8.31622 -1.31802,7.08333 z M 157.11499,97 c -0.0575,-6.471052 0.22471,-9.021745 0.88501,-8 1.14469,1.771288 1.14469,11.42569 0,15 -0.52912,1.65217 -0.82925,-0.72177 -0.88501,-7 z M 6.4588815,103.93347 c -0.3625339,-0.58659 -0.4446839,-1.281 -0.1825556,-1.54313 0.2621283,-0.26213 0.7430661,0.21781 1.0687507,1.06653 0.676184,1.76211 0.099854,2.07206 -0.8861951,0.4766 z m 96.2077885,0.39986 C 101.58657,103.25324 101.89479,90 103,90 c 0.57778,0 1,3.166667 1,7.5 0,7.5312 -0.10375,8.06292 -1.33333,6.83333 z M 53.5,103 c -0.782182,-1.2656 0.541628,-1.2656 2.5,0 1.292687,0.8354 1.266292,0.97149 -0.190983,0.98469 C 54.878976,103.99311 53.839919,103.55 53.5,103 Z m 132.51531,0.25 c 0.008,-0.4125 0.45153,-1.425 0.98469,-2.25 0.78387,-1.212959 0.9723,-1.069438 0.98469,0.75 0.008,1.2375 -0.43469,2.25 -0.98469,2.25 -0.55,0 -0.99311,-0.3375 -0.98469,-0.75 z M 29.169965,102 c 0.01617,-0.825 0.389683,-2.625 0.830035,-4 0.643629,-2.009731 0.806404,-2.107785 0.830035,-0.5 0.01617,1.1 -0.357349,2.9 -0.830035,4 -0.526534,1.22531 -0.848044,1.41898 -0.830035,0.5 z M 107.232,97 c 0,-1.925 0.2058,-2.7125 0.45733,-1.75 0.25152,0.9625 0.25152,2.5375 0,3.5 C 107.4378,99.7125 107.232,98.925 107.232,97 Z M 31.041916,92.25 c 0.02305,-0.9625 0.950663,-3.325 2.061355,-5.25 1.110692,-1.925 1.718026,-2.6 1.349633,-1.5 -0.368394,1.1 -1.092155,3.4625 -1.608359,5.25 -1.025866,3.552347 -1.868583,4.253586 -1.802629,1.5 z M 55,93 c 0,-0.55 0.45,-1 1,-1 0.55,0 1,0.45 1,1 0,0.55 -0.45,1 -1,1 -0.55,0 -1,-0.45 -1,-1 z m 110.62354,-2.538659 c -0.34295,-0.893704 -0.59502,-2.150612 -0.56015,-2.793128 0.0349,-0.642517 0.49453,-0.09038 1.02148,1.226971 0.52695,1.317351 0.77902,2.574259 0.56015,2.793128 -0.21887,0.218869 -0.67854,-0.333268 -1.02148,-1.226971 z M 39,87 c 0,-0.55 0.45,-1 1,-1 0.55,0 1,0.45 1,1 0,0.55 -0.45,1 -1,1 -0.55,0 -1,-0.45 -1,-1 z m 53,0 c 0,-0.55 0.45,-1 1,-1 0.55,0 1,0.45 1,1 0,0.55 -0.45,1 -1,1 -0.55,0 -1,-0.45 -1,-1 z M 6,85 C 6,84.45 6.4765576,84 7.059017,84 7.6414763,84 7.8399187,84.45 7.5,85 7.1600813,85.55 6.6835237,86 6.440983,86 6.1984424,86 6,85.55 6,85 Z m 98,0 c 0,-0.55 0.45,-1 1,-1 0.55,0 1,0.45 1,1 0,0.55 -0.45,1 -1,1 -0.55,0 -1,-0.45 -1,-1 z m 59.66667,0.333333 c -0.36667,-0.366666 -0.65299,-1.379166 -0.63626,-2.25 0.025,-1.300307 0.22011,-1.257107 1.09166,0.24167 1.07678,1.85169 0.76461,3.228342 -0.4554,2.00833 z m -8,-1 C 155.3,83.966667 155,83.201667 155,82.633333 c 0,-0.626604 0.46577,-0.567562 1.18333,0.15 0.65084,0.650834 0.95084,1.415834 0.66667,1.7 -0.28417,0.284167 -0.81667,0.216667 -1.18333,-0.15 z M 41,83 c 0,-0.55 0.45,-1 1,-1 0.55,0 1,0.45 1,1 0,0.55 -0.45,1 -1,1 -0.55,0 -1,-0.45 -1,-1 z m 145.66667,0.333333 C 186.3,82.966667 186,82.201667 186,81.633333 c 0,-0.626604 0.46577,-0.567562 1.18333,0.15 0.65084,0.650834 0.95084,1.415834 0.66667,1.7 -0.28417,0.284167 -0.81667,0.216667 -1.18333,-0.15 z M 35,81.059017 c 0,-0.517541 0.45,-1.219098 1,-1.559017 0.55,-0.339919 1,0.08352 1,0.940983 C 37,81.298442 36.55,82 36,82 35.45,82 35,81.576558 35,81.059017 Z m 72.12756,-0.805091 c 3.11587,-3.964134 9.3426,-8.214747 14.77166,-10.083727 3.80604,-1.310248 13.9536,-1.550934 15.80389,-0.374847 0.66172,0.4206 -1.94582,0.586796 -5.79451,0.369325 -6.26301,-0.353891 -7.66886,-0.06496 -13.39137,2.752227 -3.51656,1.731195 -7.51748,4.483108 -8.89093,6.115362 -2.63399,3.130323 -4.85094,4.214211 -2.49874,1.22166 z m 54.33132,-0.320457 c -0.36253,-0.586592 -0.44468,-1.281 -0.18255,-1.543128 0.26212,-0.262129 0.74306,0.21781 1.06875,1.066531 0.67618,1.762107 0.0999,2.072058 -0.8862,0.476597 z M 87.625425,78.466256 C 87.301721,77.622696 84.216076,75.598051 80.768436,73.967045 77.320796,72.336038 75.07746,71.001223 75.783244,71.000789 78.744298,70.998969 90,77.67142 90,79.428571 c 0,1.225142 -1.81787,0.488436 -2.374575,-0.962315 z M 37,77 c 0,-0.55 0.45,-1 1,-1 0.55,0 1,0.45 1,1 0,0.55 -0.45,1 -1,1 -0.55,0 -1,-0.45 -1,-1 z m 16,0.606989 c 0,-0.216156 0.698372,-0.661002 1.551938,-0.988546 0.889925,-0.341496 1.291322,-0.173849 0.940983,0.393011 C 54.905663,77.961658 53,78.416902 53,77.606989 Z m 98,-0.463275 c 0,-0.470958 -2.5875,-2.037343 -5.75,-3.480856 -3.1625,-1.443513 -5.17254,-2.633184 -4.46676,-2.643713 0.70579,-0.01053 3.48644,1.097298 6.17923,2.461839 C 151.78914,75.92684 154.12725,78 152.05902,78 151.47656,78 151,77.614671 151,77.143714 Z m 8.66667,-0.810381 C 159.3,75.966667 159,75.201667 159,74.633333 c 0,-0.626604 0.46577,-0.567562 1.18333,0.15 0.65084,0.650834 0.95084,1.415834 0.66667,1.7 -0.28417,0.284167 -0.81667,0.216667 -1.18333,-0.15 z M 53,72.5 c 5.248339,-2.747674 7.655379,-3.409353 12.5,-3.436167 3.3,-0.01826 6.625955,0.363177 7.39101,0.847646 0.839569,0.531655 -1.210857,0.672 -5.172196,0.354022 C 61.850187,69.794424 60.4476,70.069986 54.46553,72.869335 45.649508,76.99485 44.815734,76.784726 53,72.5 Z m 104,-0.559017 c 0,-0.582459 0.45,-0.780902 1,-0.440983 0.55,0.339919 1,0.816476 1,1.059017 C 159,72.801558 158.55,73 158,73 c -0.55,0 -1,-0.476558 -1,-1.059017 z m 27.66667,0.39235 c -0.36667,-0.366666 -0.65299,-1.379166 -0.63626,-2.25 0.025,-1.300307 0.22011,-1.257107 1.09166,0.24167 1.07678,1.85169 0.76461,3.228342 -0.4554,2.00833 z M 41.5,70 c 0.339919,-0.55 0.816476,-1 1.059017,-1 C 42.801558,69 43,69.45 43,70 43,70.55 42.523442,71 41.940983,71 41.358524,71 41.160081,70.55 41.5,70 Z M 14.085598,68.5 c 0.10413,-1.894223 1.770759,-5.083849 1.828804,-3.5 0.03023,0.825 -0.381246,2.175 -0.914402,3 -0.533156,0.825 -0.944637,1.05 -0.914402,0.5 z M 148.15268,61.36192 c -1.84102,-1.92534 -3.10852,-3.73941 -2.81666,-4.031269 0.52755,-0.527557 7.66398,6.117244 7.66398,7.136016 0,1.264541 -1.72722,0.158239 -4.84732,-3.104747 z M 182,63.940983 c 0,-0.582459 0.45,-0.780902 1,-0.440983 0.55,0.339919 1,0.816476 1,1.059017 C 184,64.801558 183.55,65 183,65 c -0.55,0 -1,-0.476558 -1,-1.059017 z M 51,58.240547 c 0,-0.417699 0.9,-1.321513 2,-2.008474 2.325616,-1.452371 2.635897,-0.725113 0.571429,1.339356 C 51.995077,59.14778 51,59.406712 51,58.240547 Z M 16.030626,56.5 c 0,-0.55 0.436218,-1.675 0.969374,-2.5 0.533156,-0.825 0.969374,-1.05 0.969374,-0.5 0,0.55 -0.436218,1.675 -0.969374,2.5 -0.533156,0.825 -0.969374,1.05 -0.969374,0.5 z M 138.25,53.504169 c -1.85658,-2.108715 -1.51563,-2.687007 0.75,-1.272096 1.1,0.686961 2,1.590775 2,2.008474 0,1.190773 -1.37819,0.82173 -2.75,-0.736378 z M 61,50 c 0,-0.55 0.45,-1 1,-1 0.55,0 1,0.45 1,1 0,0.55 -0.45,1 -1,1 -0.55,0 -1,-0.45 -1,-1 z m 72,0 c 0,-0.55 0.45,-1 1,-1 0.55,0 1,0.45 1,1 0,0.55 -0.45,1 -1,1 -0.55,0 -1,-0.45 -1,-1 z m -3,-2 c 0,-0.55 0.45,-1 1,-1 0.55,0 1,0.45 1,1 0,0.55 -0.45,1 -1,1 -0.55,0 -1,-0.45 -1,-1 z M 68.5,46 c 0.339919,-0.55 0.816476,-1 1.059017,-1 C 69.801558,45 70,45.45 70,46 70,46.55 69.523442,47 68.940983,47 68.358524,47 68.160081,46.55 68.5,46 Z m 58,0 c -0.33992,-0.55 -0.14148,-1 0.44098,-1 0.58246,0 1.05902,0.45 1.05902,1 0,0.55 -0.19844,1 -0.44098,1 -0.24254,0 -0.7191,-0.45 -1.05902,-1 z M 73,44 c 0,-0.55 0.476558,-1 1.059017,-1 0.582459,0 0.780902,0.45 0.440983,1 -0.339919,0.55 -0.816476,1 -1.059017,1 C 73.198442,45 73,44.55 73,44 Z m 49,0 c 0,-0.55 0.45,-1 1,-1 0.55,0 1,0.45 1,1 0,0.55 -0.45,1 -1,1 -0.55,0 -1,-0.45 -1,-1 z M 77.5,42 c 0.339919,-0.55 1.293034,-1 2.118034,-1 0.825,0 1.221885,0.45 0.881966,1 -0.339919,0.55 -1.293034,1 -2.118034,1 -0.825,0 -1.221885,-0.45 -0.881966,-1 z m 38,0 c -0.33992,-0.55 0.057,-1 0.88197,-1 0.825,0 1.77811,0.45 2.11803,1 0.33992,0.55 -0.057,1 -0.88197,1 -0.825,0 -1.77811,-0.45 -2.11803,-1 z m 57.12354,-0.538659 c -0.96498,-2.514694 -0.68031,-3.163555 0.49853,-1.136338 0.58369,1.003751 0.8506,2.035659 0.59313,2.293128 -0.25747,0.257469 -0.74872,-0.263087 -1.09166,-1.15679 z M 85.5,40 c 0.339919,-0.55 2.053976,-0.993109 3.809017,-0.984687 C 91.737089,39.026965 92.141375,39.262387 91,40 c -1.983259,1.281681 -6.292122,1.281681 -5.5,0 z m 15.5,0 c -1.940673,-1.254159 4.58141,-1.254159 7.5,0 1.57133,0.675226 1.14267,0.871212 -2,0.914402 C 104.3,40.944637 101.825,40.533156 101,40 Z M 30,32.5 C 31.865783,30.575 33.617334,29 33.892334,29 34.167334,29 32.865783,30.575 31,32.5 29.134217,34.425 27.382666,36 27.107666,36 26.832666,36 28.134217,34.425 30,32.5 Z m 10.733333,-8.624088 c 0.678334,-0.683418 1.485241,-0.990671 1.793128,-0.682784 0.307888,0.307887 -0.247112,0.867048 -1.233333,1.242579 -1.425198,0.542685 -1.540062,0.427821 -0.559795,-0.559795 z M 152,20 c -0.825,-0.533156 -1.05,-0.969374 -0.5,-0.969374 0.55,0 1.675,0.436218 2.5,0.969374 0.825,0.533156 1.05,0.969374 0.5,0.969374 -0.55,0 -1.675,-0.436218 -2.5,-0.969374 z m -14.5,-7 c -0.33992,-0.55 -0.14148,-1 0.44098,-1 0.58246,0 1.05902,0.45 1.05902,1 0,0.55 -0.19844,1 -0.44098,1 -0.24254,0 -0.7191,-0.45 -1.05902,-1 z M 63,11 c 0,-0.55 0.45,-1 1,-1 0.55,0 1,0.45 1,1 0,0.55 -0.45,1 -1,1 -0.55,0 -1,-0.45 -1,-1 z m 68,-0.05902 c 0,-0.582459 0.45,-0.780902 1,-0.440983 0.55,0.339919 1,0.816476 1,1.059017 C 133,11.801558 132.55,12 132,12 c -0.55,0 -1,-0.476558 -1,-1.059017 z M 70,9 C 70,8.45 70.476558,8 71.059017,8 71.641476,8 71.839919,8.45 71.5,9 71.160081,9.55 70.683524,10 70.440983,10 70.198442,10 70,9.55 70,9 Z m 53.5,0 C 123.16008,8.45 123.35852,8 123.94098,8 124.52344,8 125,8.45 125,9 c 0,0.55 -0.19844,1 -0.44098,1 -0.24254,0 -0.7191,-0.45 -1.05902,-1 z M 78.5,7 C 78.839919,6.45 79.878976,6.0068907 80.809017,6.0153128 82.266292,6.0285092 82.292687,6.1646013 81,7 79.041628,8.2655974 77.717818,8.2655974 78.5,7 Z m 34,0 c -0.33992,-0.55 0.057,-1 0.88197,-1 0.825,0 1.77811,0.45 2.11803,1 0.33992,0.55 -0.057,1 -0.88197,1 -0.825,0 -1.77811,-0.45 -2.11803,-1 z"
       id="path3799"
       inkscape:connector-curvature="0" />
    <path
       style="fill:#251f19"
       d="m 82.5,189 c -0.339919,-0.55 -2.139919,-1 -4,-1 -1.860081,0 -3.660081,-0.45 -4,-1 -0.339919,-0.55 -1.497582,-1 -2.572586,-1 -1.075003,0 -2.960946,-0.52026 -4.190983,-1.15613 C 63.043812,182.41801 61.982142,182 60.513569,182 59.681106,182 59,181.62223 59,181.16052 c 0,-0.46172 -1.141916,-1.35978 -2.537591,-1.99569 -3.044903,-1.38735 -3.90057,-2.08257 -11.280044,-9.16483 -3.151946,-3.025 -6.8301,-7.075 -8.173676,-9 -3.769186,-5.40028 -4.606619,-6 -8.378243,-6 -1.931827,0 -3.790527,-0.45 -4.130446,-1 -0.339919,-0.55 -1.491476,-1 -2.559017,-1 C 20.873442,153 20,152.55 20,152 20,151.45 19.4375,150.99945 18.75,150.99878 16.811991,150.99688 12,146.45926 12,144.63365 12,143.73514 11.55,143 11,143 c -0.55,0 -1,-1.09844 -1,-2.44098 0,-1.34254 -0.45,-2.7191 -1,-3.05902 -0.55,-0.33992 -1,-1.91492 -1,-3.5 0,-1.58508 0.45,-3.16008 1,-3.5 0.55,-0.33992 1,-1.72258 1,-3.07259 0,-2.37775 1.721983,-6.3471 3.246938,-7.48453 0.857784,-0.63981 -1.365029,-5.9233 -2.496938,-5.93508 -0.4125,-0.004 -0.75,-0.68891 -0.75,-1.52137 0,-0.83246 -0.39476,-2.29496 -0.8772444,-3.25 C 6.1223917,103.29746 4.6600886,86.946145 7,85.5 7.55,85.160081 8,83.558524 8,81.940983 8,80.323442 8.45,79 9,79 c 0.55,0 1,-0.8625 1,-1.916667 0,-1.054166 0.3375,-2.066666 0.75,-2.25 1.813522,-0.806009 5.251292,-8.948625 5.264553,-12.469488 0.04196,-11.138867 10.413426,-27.948172 22.170111,-35.931655 2.373435,-1.611703 5.50838,-4.168279 6.966546,-5.681279 C 46.609375,19.23791 48.521875,18 49.40121,18 50.280544,18 51,17.55 51,17 c 0,-0.55 0.9,-1 2,-1 1.1,0 2,-0.45 2,-1 0,-0.55 0.9,-1 2,-1 1.1,0 2,-0.45 2,-1 0,-0.55 1.35,-1 3,-1 1.65,0 3,-0.45 3,-1 0,-0.55 1.26,-1 2.8,-1 1.54,0 3.2275,-0.4039085 3.75,-0.8975744 C 73.082689,7.6543177 80.496733,6.8329358 96.398328,6.3495464 106.0818,6.0551805 111.66477,6.2647717 112.34833,6.9483276 112.92675,7.5267474 115.53344,8 118.14098,8 c 2.60754,0 5.0191,0.45 5.35902,1 0.33992,0.55 2.16648,1 4.05902,1 1.89254,0 3.44098,0.45 3.44098,1 0,0.55 1.32344,1 2.94098,1 1.61754,0 3.2191,0.45 3.55902,1 0.33992,0.55 1.71648,1 3.05902,1 1.34254,0 2.44098,0.45 2.44098,1 0,0.55 0.9,1 2,1 1.1,0 2,0.45 2,1 0,0.55 0.9,1 2,1 1.1,0 2,0.419676 2,0.932612 0,0.512937 0.9546,1.235591 2.12134,1.605899 1.16673,0.370307 5.39261,3.791802 9.39084,7.603322 5.21357,4.970108 8.14883,8.770879 10.37867,13.439002 1.71003,3.579931 3.10915,7.16376 3.10915,7.964065 0,0.800305 0.3375,1.458611 0.75,1.462902 1.11809,0.01163 3.25,5.057077 3.25,7.691563 C 180,59.964714 180.45,61 181,61 c 0.55,0 1,0.9 1,2 0,1.1 0.45,2 1,2 0.55,0 1,1.548442 1,3.440983 0,1.892541 0.45,3.719098 1,4.059017 0.55,0.339919 1,2.751476 1,5.359017 0,2.607541 0.48596,5.226946 1.07992,5.820901 1.65189,1.651889 -0.23539,25.727652 -2.17687,27.770082 -1.96902,2.07139 -0.0143,12.51764 2.34695,12.5422 0.4125,0.004 0.75,1.5828 0.75,3.5078 0,1.925 0.45,3.5 1,3.5 0.55,0 1,0.90709 1,2.01575 C 190,135.83199 187.6714,143 186.75652,143 186.34043,143 186,143.70714 186,144.57143 186,146.59247 183.59247,149 181.57143,149 180.70714,149 180,149.45 180,150 c 0,0.55 -1.125,1 -2.5,1 -1.375,0 -2.5,0.45 -2.5,1 0,0.55 -1.63472,1 -3.6327,1 -3.35127,0 -7.3673,2.75134 -7.3673,5.04725 0,0.40768 -1.2375,2.11573 -2.75,3.79567 -1.5125,1.67993 -3.89,4.31502 -5.28333,5.85575 -1.39333,1.54073 -4.01969,3.92633 -5.83637,5.30133 -1.81667,1.375 -3.841,2.99647 -4.49852,3.60328 -1.29233,1.19266 -11.26383,6.37904 -16.13178,8.39047 -1.65,0.68178 -3.78139,1.63709 -4.73643,2.12292 -0.95504,0.48583 -3.06598,0.88333 -4.69098,0.88333 -1.62501,0 -3.23267,0.45 -3.57259,1 -0.37133,0.60082 -7.15738,1 -17,1 -9.842621,0 -16.628672,-0.39918 -17,-1 z m 32,-8 c 0.33992,-0.55 1.94758,-1 3.57259,-1 1.625,0 3.73594,-0.39298 4.69098,-0.8733 0.95504,-0.48031 4.99893,-2.36725 8.98643,-4.19319 3.9875,-1.82594 7.25,-3.65263 7.25,-4.05931 0,-0.40669 0.82694,-1.00189 1.83765,-1.32267 3.13862,-0.99616 15.40226,-13.7892 17.38034,-18.13063 0.60667,-1.3315 1.48081,-2.4209 1.94253,-2.4209 0.46171,0 0.83948,-0.9 0.83948,-2 0,-1.1 0.45,-2 1,-2 0.55,0 1,-0.60586 1,-1.34636 0,-0.7405 0.65935,-2.66806 1.46522,-4.28346 5.3877,-10.7999 6.71888,-32.88832 2.80235,-46.499642 C 164.7668,84.179504 159.77132,73.205033 156.92561,70.150526 155.86652,69.013731 155,67.614811 155,67.041813 155,66.468816 154.55,66 154,66 153.45,66 153,65.535 153,64.966667 153,63.617108 146.37533,57 145.02423,57 c -0.57334,0 -2.45508,-1.35 -4.18165,-3 -1.72656,-1.65 -3.74747,-3 -4.49089,-3 C 135.60826,51 135,50.55 135,50 c 0,-0.55 -0.675,-1 -1.5,-1 -0.825,0 -1.5,-0.45 -1.5,-1 0,-0.55 -0.9,-1 -2,-1 -1.1,0 -2,-0.45 -2,-1 0,-0.55 -0.9,-1 -2,-1 -1.1,0 -2,-0.45 -2,-1 0,-0.55 -1.035,-1 -2.3,-1 -1.265,0 -2.7275,-0.403908 -3.25,-0.897574 C 116.2209,39.996339 87.525349,38.074651 85.69136,39.90864 85.091112,40.508888 83.141558,41 81.359017,41 79.576476,41 77.839919,41.45 77.5,42 77.160081,42.55 76.008524,43 74.940983,43 73.873442,43 73,43.45 73,44 c 0,0.55 -0.585286,1 -1.300635,1 -1.83972,0 -6.682221,2.351936 -6.691563,3.25 -0.0043,0.4125 -0.727258,0.75 -1.606592,0.75 -0.879335,0 -2.791835,1.237515 -4.25,2.750034 C 57.693044,53.262552 55.2625,55.138593 53.75,55.919014 52.2375,56.699434 51,57.837577 51,58.44822 51,59.058864 50.1,60.207165 49,61 c -1.1,0.792835 -2,1.796273 -2,2.229861 0,0.433588 -1.35,2.200988 -3,3.927555 -1.65,1.726567 -3,3.747471 -3,4.490898 C 41,72.391741 40.55,73 40,73 c -0.55,0 -1,0.675 -1,1.5 0,0.825 -0.34015,1.5 -0.755889,1.5 -0.415738,0 -1.347923,1.4625 -2.071522,3.25 -0.723599,1.7875 -2.160346,5.275 -3.192771,7.75 -1.032425,2.475 -2.636971,8.640216 -3.565656,13.70048 -2.464729,13.42993 -0.5432,27.09178 5.843908,41.54952 1.154144,2.6125 2.468228,4.75 2.920187,4.75 C 38.630216,147 39,147.9 39,149 c 0,1.1 0.419676,2 0.932612,2 0.512937,0 1.225387,0.92245 1.583222,2.04989 0.357835,1.12744 2.188159,3.58744 4.067388,5.46666 C 47.46245,160.39578 49,162.39833 49,162.96667 49,163.535 49.40241,164 49.894245,164 c 0.491834,0 2.282338,1.2375 3.978897,2.75 4.532218,4.04052 5.272523,4.59419 9.243241,6.913 4.69444,2.74144 14.842695,6.33276 17.950196,6.35231 C 82.404961,180.02373 84.175,180.46684 85,181 c 2.008264,1.29784 28.69789,1.29784 29.5,0 z m -11.76118,-8 c -4.469866,-2.3957 -5.421515,-2.46016 -7.381677,-0.5 -2.180717,2.18072 -7.574979,1.89438 -9.634902,-0.51143 C 83.847128,169.7986 83.395586,164.49158 85,163.5 c 0.55,-0.33992 1,-1.57203 1,-2.73802 0,-3.40218 2.31935,-9.07761 4.704545,-11.51198 C 93.583615,146.31157 94,146.40633 94,150 c 0,1.65 -0.45,3 -1,3 -0.55,0 -1,0.87344 -1,1.94098 0,1.06754 -0.40028,2.18837 -0.889512,2.49073 -0.489232,0.30237 -1.117311,2.01642 -1.395732,3.80902 -0.278422,1.7926 -0.819281,4.22839 -1.20191,5.41287 -0.539542,1.67022 -0.206715,2.30879 1.48286,2.84504 C 92.610559,170.32856 96,167.20784 96,163.97038 c 0,-2.74535 2.420339,-5.13005 4.4257,-4.36052 1.0132,0.38881 1.5743,1.83888 1.5743,4.06856 0,3.66797 1.84421,6.32158 4.39339,6.32158 2.33578,0 3.70447,-3.36467 2.70565,-6.65133 -0.47614,-1.56677 -1.4292,-4.72771 -2.1179,-7.02432 -0.6887,-2.2966 -0.95767,-4.94313 -0.59771,-5.88116 0.5836,-1.52084 0.87193,-1.45478 2.66275,0.61005 1.10455,1.27357 2.23664,3.47009 2.51573,4.88117 0.2791,1.41107 0.94185,3.94754 1.47277,5.63659 0.53093,1.68905 0.96532,3.73683 0.96532,4.55063 0,2.7281 -2.47827,6.77379 -4.79705,7.83104 -2.82978,1.29023 -2.07063,1.40211 -6.46413,-0.95267 z M 94.25,130.47457 c -1.2375,-1.32171 -2.25,-3.05668 -2.25,-3.8555 0,-0.79882 -0.5625,-1.66095 -1.25,-1.91584 -0.924621,-0.3428 -0.813062,-0.92229 0.428571,-2.22619 1.525974,-1.6025 1.821429,-1.6199 3.25,-0.19133 C 95.292857,123.15 96,124.37143 96,125 c 0,1.6539 2.597466,4 4.42857,4 1.25703,0 1.57143,-1.22185 1.57143,-6.10699 0,-5.15793 0.24582,-6.01266 1.58179,-5.5 0.86998,0.33385 1.76998,0.60699 2,0.60699 1.18869,0 0.27395,12.28712 -1.01036,13.57143 -2.24852,2.24851 -7.735107,1.66545 -10.32143,-1.09686 z M 58.41611,124.56381 C 49.819994,121.74189 41,115.1429 41,111.53333 41,110.69 40.55,110 40,110 c -0.606061,0 -1,-4.33333 -1,-11 0,-6.666667 0.393939,-11 1,-11 0.55,0 1,-0.9 1,-2 0,-1.1 0.45,-2 1,-2 0.55,0 1,-0.695455 1,-1.545455 0,-2.540201 4.61366,-6.378833 11.59112,-9.643981 5.77753,-2.703632 7.321099,-3.01116 12.875847,-2.565279 C 78.961502,71.167956 92,79.402392 92,85.739071 92,86.982582 92.45,88 93,88 c 0.596053,0 1,3.813661 1,9.440983 0,5.215297 -0.447589,9.717607 -1,10.059017 -0.55,0.33992 -1,1.49148 -1,2.55902 C 92,111.12656 91.55,112 91,112 c -0.55,0 -1,0.63 -1,1.4 0,2.03734 -6.339772,8.05299 -10.723469,10.17524 -4.716395,2.28332 -15.377377,2.78854 -20.860421,0.98857 z m 18.327666,-4.53409 C 82.685893,117.33244 88,111.42351 88,107.51357 88,106.68111 88.45,106 89,106 90.425432,106 90.251459,92.372701 88.771108,88.070998 86.36707,81.085179 78.232068,75.513959 68.824012,74.41032 c -5.960639,-0.699231 -12.463706,0.693738 -15.573288,3.335826 -1.1353,0.96462 -3.006154,2.415696 -4.157453,3.224613 C 47.941972,81.779677 47,83.017177 47,83.720759 47,84.424342 46.55,85 46,85 c -0.55,0 -1,1.125 -1,2.5 0,1.375 -0.45,2.5 -1,2.5 -0.592593,0 -1,3.666667 -1,9 0,5.33333 0.407407,9 1,9 0.55,0 1,0.71946 1,1.59879 0,1.39385 1.935923,3.5186 7.370444,8.08933 2.235718,1.88036 10.708301,4.16811 15.629556,4.22027 2.475,0.0262 6.409699,-0.81918 8.743776,-1.87867 z M 52.941597,100.89883 C 51.315032,99.454468 50.917264,98.580951 51.75,98.282033 52.4375,98.035248 53,96.970833 53,95.916667 53,93.573143 57.389936,93.247079 59.571429,95.428571 61.442304,97.299447 61.449714,102 59.581787,102 c -0.780016,0 -2.043798,0.24006 -2.808403,0.53347 -0.764605,0.2934 -2.488909,-0.44218 -3.831787,-1.63464 z M 128,124.88139 c -2.475,-0.3876 -6.075,-1.38215 -8,-2.21012 -5.13953,-2.21059 -12,-7.45745 -12,-9.17754 C 108,112.67218 107.55,112 107,112 c -0.55,0 -1,-0.9 -1,-2 0,-1.1 -0.45,-2 -1,-2 -0.60606,0 -1,-4.33333 -1,-11 0,-6.666667 0.39394,-11 1,-11 0.55,0 1,-0.686992 1,-1.52665 0,-2.734127 6.23489,-8.46366 12.64326,-11.618492 5.55699,-2.735698 7.03816,-3.039802 13.06222,-2.681856 C 142.00017,70.784706 155,77.605656 155,82.395528 c 0,0.817541 0.45,1.764553 1,2.104472 0.57238,0.353753 1,5.510384 1,12.059017 C 157,103.51967 156.6084,108 156,108 c -0.55,0 -1,0.9 -1,2 0,1.1 -0.45,2 -1,2 -0.55,0 -1,0.69 -1,1.53333 0,1.88284 -6.42831,8.46667 -8.26667,8.46667 -0.73333,0 -1.77937,0.44604 -2.32452,0.99119 -1.6074,1.6074 -9.55616,2.65015 -14.40881,1.8902 z m 13.19697,-5.48325 c 3.58099,-1.8518 7.80303,-5.83017 7.80303,-7.35269 0,-0.575 0.3375,-1.04896 0.75,-1.05325 0.4125,-0.004 1.3125,-1.21901 2,-2.69937 C 153.26395,105.03293 153.47739,86 152,86 c -0.55,0 -1,-0.695455 -1,-1.545455 0,-2.15703 -4.36273,-6.290331 -8.43579,-7.992164 -4.99347,-2.086404 -13.47554,-2.835307 -18.07354,-1.595757 C 119.61116,76.182064 112,80.969596 112,82.72344 112,83.425548 111.55,84 111,84 c -0.55,0 -1,0.8625 -1,1.916667 0,1.054166 -0.54128,2.097095 -1.20285,2.317618 -0.81877,0.272922 -1.18549,3.148961 -1.14847,9.00695 0.0517,8.184605 0.22405,8.842195 3.51924,13.429675 4.76573,6.63473 12.07795,10.28959 20.63174,10.31234 3.85223,0.0102 7.5031,-0.60557 9.39731,-1.58511 z M 135.75,95.783364 c -1.86644,-2.335876 -2.11303,-3.673755 -1.14301,-6.201577 0.75636,-1.971038 5.05211,-2.065544 6.96444,-0.153216 C 143.49627,91.353412 143.44576,96 141.5,96 c -0.825,0 -1.5,0.45 -1.5,1 0,1.749533 -2.43747,1.051765 -4.25,-1.216636 z M 31.381165,144.25 c -0.361317,-1.5125 -0.951033,-3.2 -1.310479,-3.75 -0.80685,-1.23458 -2.43603,-6.39621 -4.103231,-13 -0.694268,-2.75 -1.59403,-5.37557 -1.99947,-5.83459 -0.40544,-0.45902 -2.019098,0.84611 -3.585908,2.90031 -2.372673,3.11073 -2.848744,4.7013 -2.848744,9.51774 0,5.17822 0.311926,6.0511 2.983334,8.34847 1.640833,1.4111 3.770833,2.56618 4.733333,2.56685 C 26.2125,144.99945 27,145.45 27,146 c 0,0.55 1.133573,1 2.519052,1 2.240648,0 2.446448,-0.30393 1.862113,-2.75 z M 173,144 c 0,-0.55 0.93214,-1 2.07143,-1 2.56699,0 4.09319,-1.56222 5.5755,-5.70705 1.30736,-3.65568 0.0844,-8.49707 -3.28716,-13.0129 -2.38699,-3.1971 -3.91086,-2.48649 -4.79698,2.23694 -0.36516,1.94649 -1.53174,6.25555 -2.5924,9.57569 -1.5374,4.81248 -1.67923,6.31997 -0.69943,7.43393 C 170.70505,145.15705 173,145.44838 173,144 Z M 23.440667,106.2639 C 24.823722,92.438445 29.603766,79.134932 37.338757,67.58363 41.793683,60.930722 55.278216,47 57.263112,47 57.975565,47 59.207165,46.1 60,45 60.792835,43.9 62.242177,43 63.220759,43 64.199342,43 65,42.55 65,42 c 0,-0.55 0.9,-1 2,-1 1.1,0 2,-0.45 2,-1 0,-0.55 0.681106,-1 1.513569,-1 0.832463,0 2.294963,-0.406141 3.25,-0.902536 5.214443,-2.710283 11.474184,-3.590253 24.625217,-3.46172 12.410644,0.121297 17.446974,0.821368 24.111214,3.351554 3.07705,1.168254 11.93841,5.422279 12.5,6.000807 0.275,0.283296 1.7375,1.152907 3.25,1.932469 1.5125,0.779562 2.75,1.791345 2.75,2.248406 C 141,48.626041 141.68139,49 142.5142,49 143.88022,49 161,65.108613 161,66.39395 c 0,0.295126 1.35154,2.667748 3.00342,5.272494 C 169.68676,80.628138 174,94.631027 174,104.12022 c 0,5.73386 0.0838,5.9388 1.74849,4.27415 1.40552,-1.40552 1.81808,-3.9409 2.1033,-12.92566 0.39956,-12.586948 -1.4797,-24.169475 -4.80696,-29.626968 C 171.92429,64.003784 171.00579,61.2625 171.00374,59.75 171.00168,58.2375 170.6625,56.996489 170.25,56.992198 169.35194,56.982856 167,52.140355 167,50.300635 167,49.585286 166.60625,49 166.125,49 c -0.48125,0 -1.13661,-1.308061 -1.45636,-2.906801 -0.35499,-1.774928 -3.30784,-5.671412 -7.58332,-10.00669 C 145.34519,24.182194 131.49897,18.695696 104,15.051712 97.170175,14.146669 93.73158,14.209305 86.5,15.370489 75.03896,17.210802 67.224362,19.362193 60.575491,22.507613 57.67783,23.878426 54.997938,25 54.620175,25 c -0.377763,0 -2.261842,1.575 -4.186842,3.5 -1.925,1.925 -3.912973,3.5 -4.417718,3.5 -1.520343,0 -14.690679,13.470964 -16.39772,16.772017 -2.495568,4.825895 -4.363312,11.228649 -5.086511,17.436907 -0.400215,3.435614 -1.599711,7.08625 -3.012274,9.167778 C 16.695192,82.485142 15.5,86.203911 15.5,94.104801 c 0,6.336679 0.485872,8.622499 2.913716,13.707839 1.602543,3.35666 3.23695,5.90326 3.632014,5.6591 0.395064,-0.24417 1.022786,-3.48769 1.394937,-7.20784 z"
       id="path3797"
       inkscape:connector-curvature="0" />
  </g>
</svg>
